<?xml version="1.0" encoding="UTF-8" standalone="no"?>
<!-- Created with Inkscape (http://www.inkscape.org/) -->

<svg
   xmlns:dc="http://purl.org/dc/elements/1.1/"
   xmlns:cc="http://creativecommons.org/ns#"
   xmlns:rdf="http://www.w3.org/1999/02/22-rdf-syntax-ns#"
   xmlns:svg="http://www.w3.org/2000/svg"
   xmlns="http://www.w3.org/2000/svg"
   xmlns:sodipodi="http://sodipodi.sourceforge.net/DTD/sodipodi-0.dtd"
   xmlns:inkscape="http://www.inkscape.org/namespaces/inkscape"
   width="101.6mm"
   height="128.5mm"
   viewBox="0 0 101.6 128.5"
   version="1.1"
   id="svg8"
   style="enable-background:new"
   inkscape:version="0.92.5 (2060ec1f9f, 2020-04-08)"
   sodipodi:docname="LIF.svg">
  <defs
     id="defs2">
    <filter
       style="color-interpolation-filters:sRGB;"
       inkscape:label="Feather"
       id="filter1191">
      <feGaussianBlur
         stdDeviation="100"
         result="blur"
         id="feGaussianBlur1183" />
      <feComposite
         in="SourceGraphic"
         in2="blur"
         operator="atop"
         result="composite1"
         id="feComposite1185" />
      <feComposite
         in2="composite1"
         operator="in"
         result="composite2"
         id="feComposite1187" />
      <feComposite
         in2="composite2"
         operator="in"
         result="composite3"
         id="feComposite1189" />
    </filter>
  </defs>
  <sodipodi:namedview
     id="base"
     pagecolor="#ffffff"
     bordercolor="#666666"
     borderopacity="1.0"
     inkscape:pageopacity="0.0"
     inkscape:pageshadow="2"
     inkscape:zoom="2.8"
     inkscape:cx="77.797451"
     inkscape:cy="65.645868"
     inkscape:document-units="mm"
     inkscape:current-layer="layer5"
     showgrid="false"
     inkscape:window-width="1920"
     inkscape:window-height="1018"
     inkscape:window-x="0"
     inkscape:window-y="30"
     inkscape:window-maximized="1" />
  <metadata
     id="metadata5">
    <rdf:RDF>
      <cc:Work
         rdf:about="">
        <dc:format>image/svg+xml</dc:format>
        <dc:type
           rdf:resource="http://purl.org/dc/dcmitype/StillImage" />
        <dc:title />
      </cc:Work>
    </rdf:RDF>
  </metadata>
  <g
     inkscape:groupmode="layer"
     id="layer2"
     inkscape:label="Background">
    <path
       style="fill:none;stroke:#000000;stroke-width:0.26458332px;stroke-linecap:butt;stroke-linejoin:miter;stroke-opacity:1"
       d="M -0.18898809,-0.20089573 101.86458,0.17708046 101.67559,128.68898 H -0.56696427 Z"
       id="path5197"
       inkscape:connector-curvature="0" />
    <path
       style="fill:#000000;fill-opacity:1;stroke-width:0.19056478"
       d="m -0.86940642,125.79854 c 0.0620531,-1.65243 0.16669539,-30.805872 0.23253849,-64.78541 l 0.11971471,-61.78099006 48.18826022,0.1210805 c 26.503542,0.066594 49.537528,0.1727635 51.186633,0.2359316 l 2.99837,0.1148513 V 28.454886 c 0,15.812985 -0.057,44.860248 -0.12674,64.549478 l -0.12675,35.798596 H 50.310194 -0.98223023 Z"
       id="path5199"
       inkscape:connector-curvature="0" />
    <ellipse
       style="fill:#ffffff;fill-opacity:1;stroke-width:0.31665337;enable-background:new"
       id="path900"
       cx="-106"
       cy="92.5"
       rx="10"
       ry="5"
       transform="rotate(-90)" />
    <g
       aria-label="LEAK         REFRACTORY       DELAY PERIOD"
       style="font-style:normal;font-weight:normal;font-size:10.58333302px;line-height:0;font-family:sans-serif;letter-spacing:0px;word-spacing:0px;fill:#000000;fill-opacity:1;stroke:none;stroke-width:0.26458332"
       id="text880"
       transform="translate(0,0.66145833)">
      <path
         d="m 18.851069,115.1033 h 0.278364 v 1.82315 h 1.001833 v 0.23426 h -1.280197 z"
         style="font-size:2.82222223px;line-height:0.1;text-align:center;text-anchor:middle;fill:#ffffff;stroke-width:0.26458332"
         id="path889"
         inkscape:connector-curvature="0" />
      <path
         d="m 20.42341,115.1033 h 1.300868 v 0.23427 h -1.022504 v 0.60909 h 0.979785 v 0.23427 h -0.979785 v 0.74552 h 1.047309 v 0.23426 H 20.42341 Z"
         style="font-size:2.82222223px;line-height:0.1;text-align:center;text-anchor:middle;fill:#ffffff;stroke-width:0.26458332"
         id="path891"
         inkscape:connector-curvature="0" />
      <path
         d="m 22.894233,115.37753 -0.377583,1.02388 h 0.756543 z m -0.157096,-0.27423 h 0.31557 l 0.784104,2.05741 h -0.289388 l -0.187413,-0.52779 h -0.92742 l -0.187413,0.52779 h -0.293522 z"
         style="font-size:2.82222223px;line-height:0.1;text-align:center;text-anchor:middle;fill:#ffffff;stroke-width:0.26458332"
         id="path893"
         inkscape:connector-curvature="0" />
      <path
         d="m 24.137224,115.1033 h 0.278363 v 0.86954 l 0.923286,-0.86954 h 0.35829 l -1.021127,0.95912 1.094163,1.09829 h -0.366558 l -0.988054,-0.99081 v 0.99081 h -0.278363 z"
         style="font-size:2.82222223px;line-height:0.1;text-align:center;text-anchor:middle;fill:#ffffff;stroke-width:0.26458332"
         id="path895"
         inkscape:connector-curvature="0" />
      <path
         d="m 35.037506,116.19609 q 0.08957,0.0303 0.173633,0.12953 0.08544,0.0992 0.170876,0.27285 l 0.282498,0.56224 h -0.299034 l -0.263206,-0.52779 q -0.101974,-0.2067 -0.198437,-0.27423 -0.09508,-0.0675 -0.260449,-0.0675 h -0.303169 v 0.86954 h -0.278363 v -2.05741 h 0.628385 q 0.352778,0 0.526411,0.14745 0.173632,0.14745 0.173632,0.44511 0,0.1943 -0.09095,0.32246 -0.08957,0.12816 -0.261827,0.17777 z m -0.697288,-0.86403 v 0.73036 h 0.350022 q 0.201194,0 0.303168,-0.0923 0.103353,-0.0937 0.103353,-0.27423 0,-0.18052 -0.103353,-0.27147 -0.101974,-0.0923 -0.303168,-0.0923 z"
         style="font-size:2.82222223px;line-height:0.1;text-align:center;text-anchor:middle;fill:#ffffff;stroke-width:0.26458332"
         id="path897"
         inkscape:connector-curvature="0" />
      <path
         d="m 36.022803,115.1033 h 1.300868 v 0.23427 h -1.022505 v 0.60909 h 0.979786 v 0.23427 h -0.979786 v 0.74552 h 1.047309 v 0.23426 h -1.325672 z"
         style="font-size:2.82222223px;line-height:0.1;text-align:center;text-anchor:middle;fill:#ffffff;stroke-width:0.26458332"
         id="path899"
         inkscape:connector-curvature="0" />
      <path
         d="m 37.805985,115.1033 h 1.182357 v 0.23427 h -0.903993 v 0.60634 h 0.815798 v 0.23426 h -0.815798 v 0.98254 h -0.278364 z"
         style="font-size:2.82222223px;line-height:0.1;text-align:center;text-anchor:middle;fill:#ffffff;stroke-width:0.26458332"
         id="path901"
         inkscape:connector-curvature="0" />
      <path
         d="m 40.404965,116.19609 q 0.08957,0.0303 0.173633,0.12953 0.08544,0.0992 0.170877,0.27285 l 0.282497,0.56224 h -0.299034 l -0.263205,-0.52779 q -0.101975,-0.2067 -0.198438,-0.27423 -0.09508,-0.0675 -0.260449,-0.0675 h -0.303168 v 0.86954 h -0.278364 v -2.05741 h 0.628385 q 0.352778,0 0.526411,0.14745 0.173633,0.14745 0.173633,0.44511 0,0.1943 -0.09095,0.32246 -0.08957,0.12816 -0.261827,0.17777 z m -0.697287,-0.86403 v 0.73036 h 0.350021 q 0.201194,0 0.303169,-0.0923 0.103353,-0.0937 0.103353,-0.27423 0,-0.18052 -0.103353,-0.27147 -0.101975,-0.0923 -0.303169,-0.0923 z"
         style="font-size:2.82222223px;line-height:0.1;text-align:center;text-anchor:middle;fill:#ffffff;stroke-width:0.26458332"
         id="path903"
         inkscape:connector-curvature="0" />
      <path
         d="m 41.963526,115.37753 -0.377582,1.02388 h 0.756542 z M 41.80643,115.1033 H 42.122 l 0.784104,2.05741 h -0.289388 l -0.187413,-0.52779 h -0.92742 l -0.187413,0.52779 h -0.293522 z"
         style="font-size:2.82222223px;line-height:0.1;text-align:center;text-anchor:middle;fill:#ffffff;stroke-width:0.26458332"
         id="path905"
         inkscape:connector-curvature="0" />
      <path
         d="m 44.697553,115.26178 v 0.29352 q -0.14056,-0.13091 -0.300412,-0.19568 -0.158475,-0.0648 -0.33762,-0.0648 -0.352777,0 -0.540191,0.21635 -0.187413,0.21498 -0.187413,0.62287 0,0.40653 0.187413,0.62288 0.187414,0.21497 0.540191,0.21497 0.179145,0 0.33762,-0.0648 0.159852,-0.0648 0.300412,-0.19568 v 0.29077 q -0.146072,0.0992 -0.310058,0.14883 -0.162609,0.0496 -0.34451,0.0496 -0.467155,0 -0.735872,-0.28526 -0.268718,-0.28663 -0.268718,-0.78135 0,-0.49609 0.268718,-0.78134 0.268717,-0.28663 0.735872,-0.28663 0.184657,0 0.347266,0.0496 0.163986,0.0482 0.307302,0.14608 z"
         style="font-size:2.82222223px;line-height:0.1;text-align:center;text-anchor:middle;fill:#ffffff;stroke-width:0.26458332"
         id="path907"
         inkscape:connector-curvature="0" />
      <path
         d="m 44.842247,115.1033 h 1.740462 v 0.23427 h -0.73036 v 1.82314 h -0.279742 v -1.82314 h -0.73036 z"
         style="font-size:2.82222223px;line-height:0.1;text-align:center;text-anchor:middle;fill:#ffffff;stroke-width:0.26458332"
         id="path909"
         inkscape:connector-curvature="0" />
      <path
         d="m 47.686519,115.29209 q -0.303169,0 -0.482314,0.226 -0.177767,0.226 -0.177767,0.61598 0,0.38861 0.177767,0.61461 0.179145,0.226 0.482314,0.226 0.303168,0 0.479557,-0.226 0.177767,-0.226 0.177767,-0.61461 0,-0.38998 -0.177767,-0.61598 -0.176389,-0.226 -0.479557,-0.226 z m 0,-0.22599 q 0.432704,0 0.691775,0.29076 0.259071,0.28939 0.259071,0.77721 0,0.48645 -0.259071,0.77722 -0.259071,0.28939 -0.691775,0.28939 -0.434083,0 -0.694532,-0.28939 -0.259071,-0.28939 -0.259071,-0.77722 0,-0.48782 0.259071,-0.77721 0.260449,-0.29076 0.694532,-0.29076 z"
         style="font-size:2.82222223px;line-height:0.1;text-align:center;text-anchor:middle;fill:#ffffff;stroke-width:0.26458332"
         id="path911"
         inkscape:connector-curvature="0" />
      <path
         d="m 50.048476,116.19609 q 0.08957,0.0303 0.173633,0.12953 0.08544,0.0992 0.170876,0.27285 l 0.282498,0.56224 h -0.299034 l -0.263205,-0.52779 q -0.101975,-0.2067 -0.198438,-0.27423 -0.09508,-0.0675 -0.260449,-0.0675 h -0.303169 v 0.86954 h -0.278363 v -2.05741 h 0.628385 q 0.352778,0 0.526411,0.14745 0.173633,0.14745 0.173633,0.44511 0,0.1943 -0.09095,0.32246 -0.08957,0.12816 -0.261827,0.17777 z m -0.697288,-0.86403 v 0.73036 h 0.350022 q 0.201194,0 0.303169,-0.0923 0.103352,-0.0937 0.103352,-0.27423 0,-0.18052 -0.103352,-0.27147 -0.101975,-0.0923 -0.303169,-0.0923 z"
         style="font-size:2.82222223px;line-height:0.1;text-align:center;text-anchor:middle;fill:#ffffff;stroke-width:0.26458332"
         id="path913"
         inkscape:connector-curvature="0" />
      <path
         d="m 50.570753,115.1033 h 0.299034 l 0.570508,0.84612 0.566374,-0.84612 h 0.299034 l -0.727604,1.07763 v 0.97978 h -0.279742 v -0.97978 z"
         style="font-size:2.82222223px;line-height:0.1;text-align:center;text-anchor:middle;fill:#ffffff;stroke-width:0.26458332"
         id="path915"
         inkscape:connector-curvature="0" />
      <path
         d="m 59.135261,115.33206 v 1.5999 h 0.336242 q 0.425813,0 0.622873,-0.19293 0.198437,-0.19292 0.198437,-0.60909 0,-0.41341 -0.198437,-0.60496 -0.19706,-0.19292 -0.622873,-0.19292 z m -0.278363,-0.22876 h 0.571885 q 0.598069,0 0.877811,0.24943 0.279742,0.24804 0.279742,0.77721 0,0.53192 -0.28112,0.78135 -0.28112,0.24942 -0.876433,0.24942 h -0.571885 z"
         style="font-size:2.82222223px;line-height:0.1;text-align:center;text-anchor:middle;fill:#ffffff;stroke-width:0.26458332"
         id="path917"
         inkscape:connector-curvature="0" />
      <path
         d="m 61.030062,115.1033 h 1.300868 v 0.23427 h -1.022504 v 0.60909 h 0.979785 v 0.23427 h -0.979785 v 0.74552 h 1.047309 v 0.23426 h -1.325673 z"
         style="font-size:2.82222223px;line-height:0.1;text-align:center;text-anchor:middle;fill:#ffffff;stroke-width:0.26458332"
         id="path919"
         inkscape:connector-curvature="0" />
      <path
         d="m 62.813242,115.1033 h 0.278364 v 1.82315 h 1.001834 v 0.23426 h -1.280198 z"
         style="font-size:2.82222223px;line-height:0.1;text-align:center;text-anchor:middle;fill:#ffffff;stroke-width:0.26458332"
         id="path921"
         inkscape:connector-curvature="0" />
      <path
         d="m 65.137995,115.37753 -0.377582,1.02388 h 0.756542 z m -0.157096,-0.27423 h 0.31557 l 0.784104,2.05741 h -0.289388 l -0.187413,-0.52779 h -0.92742 l -0.187413,0.52779 h -0.293522 z"
         style="font-size:2.82222223px;line-height:0.1;text-align:center;text-anchor:middle;fill:#ffffff;stroke-width:0.26458332"
         id="path923"
         inkscape:connector-curvature="0" />
      <path
         d="m 65.879377,115.1033 h 0.299035 l 0.570507,0.84612 0.566374,-0.84612 h 0.299034 l -0.727604,1.07763 v 0.97978 h -0.279742 v -0.97978 z"
         style="font-size:2.82222223px;line-height:0.1;text-align:center;text-anchor:middle;fill:#ffffff;stroke-width:0.26458332"
         id="path925"
         inkscape:connector-curvature="0" />
      <path
         d="m 38.310346,117.48924 v 0.77308 h 0.350022 q 0.194303,0 0.300412,-0.1006 0.106109,-0.1006 0.106109,-0.28663 0,-0.18466 -0.106109,-0.28526 -0.106109,-0.10059 -0.300412,-0.10059 z m -0.278364,-0.22876 h 0.628386 q 0.345887,0 0.522276,0.1571 0.177767,0.15572 0.177767,0.45751 0,0.30454 -0.177767,0.46026 -0.176389,0.15572 -0.522276,0.15572 h -0.350022 v 0.82682 h -0.278364 z"
         style="font-size:2.82222223px;line-height:0.1;text-align:center;text-anchor:middle;fill:#ffffff;stroke-width:0.26458332"
         id="path927"
         inkscape:connector-curvature="0" />
      <path
         d="m 39.73386,117.26048 h 1.300868 v 0.23427 h -1.022505 v 0.60909 h 0.979785 v 0.23427 h -0.979785 v 0.74552 h 1.047309 v 0.23426 H 39.73386 Z"
         style="font-size:2.82222223px;line-height:0.1;text-align:center;text-anchor:middle;fill:#ffffff;stroke-width:0.26458332"
         id="path929"
         inkscape:connector-curvature="0" />
      <path
         d="m 42.492692,118.35327 q 0.08957,0.0303 0.173633,0.12953 0.08544,0.0992 0.170877,0.27285 l 0.282497,0.56224 h -0.299034 l -0.263205,-0.52778 q -0.101975,-0.20671 -0.198438,-0.27423 -0.09508,-0.0675 -0.260449,-0.0675 h -0.303168 v 0.86954 h -0.278364 v -2.05741 h 0.628385 q 0.352778,0 0.526411,0.14745 0.173633,0.14745 0.173633,0.44511 0,0.1943 -0.09095,0.32246 -0.08957,0.12816 -0.261827,0.17777 z m -0.697287,-0.86403 v 0.73036 h 0.350021 q 0.201194,0 0.303169,-0.0923 0.103353,-0.0937 0.103353,-0.27423 0,-0.18052 -0.103353,-0.27147 -0.101975,-0.0923 -0.303169,-0.0923 z"
         style="font-size:2.82222223px;line-height:0.1;text-align:center;text-anchor:middle;fill:#ffffff;stroke-width:0.26458332"
         id="path931"
         inkscape:connector-curvature="0" />
      <path
         d="m 43.477989,117.26048 h 0.278364 v 2.05741 h -0.278364 z"
         style="font-size:2.82222223px;line-height:0.1;text-align:center;text-anchor:middle;fill:#ffffff;stroke-width:0.26458332"
         id="path933"
         inkscape:connector-curvature="0" />
      <path
         d="m 45.145415,117.44927 q -0.303168,0 -0.482313,0.226 -0.177767,0.226 -0.177767,0.61599 0,0.3886 0.177767,0.6146 0.179145,0.226 0.482313,0.226 0.303169,0 0.479558,-0.226 0.177767,-0.226 0.177767,-0.6146 0,-0.38999 -0.177767,-0.61599 -0.176389,-0.226 -0.479558,-0.226 z m 0,-0.22599 q 0.432704,0 0.691776,0.29076 0.259071,0.28939 0.259071,0.77722 0,0.48644 -0.259071,0.77721 -0.259072,0.28939 -0.691776,0.28939 -0.434082,0 -0.694531,-0.28939 -0.259071,-0.28939 -0.259071,-0.77721 0,-0.48783 0.259071,-0.77722 0.260449,-0.29076 0.694531,-0.29076 z"
         style="font-size:2.82222223px;line-height:0.1;text-align:center;text-anchor:middle;fill:#ffffff;stroke-width:0.26458332"
         id="path935"
         inkscape:connector-curvature="0" />
      <path
         d="m 46.810086,117.48924 v 1.5999 h 0.336241 q 0.425814,0 0.622873,-0.19293 0.198438,-0.19292 0.198438,-0.60909 0,-0.41341 -0.198438,-0.60496 -0.197059,-0.19292 -0.622873,-0.19292 z m -0.278364,-0.22876 h 0.571886 q 0.598069,0 0.87781,0.24943 0.279742,0.24804 0.279742,0.77721 0,0.53192 -0.28112,0.78135 -0.28112,0.24942 -0.876432,0.24942 h -0.571886 z"
         style="font-size:2.82222223px;line-height:0.1;text-align:center;text-anchor:middle;fill:#ffffff;stroke-width:0.26458332"
         id="path937"
         inkscape:connector-curvature="0" />
    </g>
  </g>
  <g
     inkscape:label="Layer 1"
     inkscape:groupmode="layer"
     id="layer1"
     style="display:inline"
     transform="translate(0,-168.5)" />
  <g
     inkscape:groupmode="layer"
     id="layer5"
     inkscape:label="components"
     style="display:inline">
    <circle
       style="fill:#00ff00;fill-opacity:1;stroke-width:0.24137932"
       id="path5321"
       cx="12.5"
       cy="46"
       r="2.5"
       inkscape:label="IN1" />
    <circle
       style="fill:#ff0000;fill-opacity:1;stroke-width:0.24137931;enable-background:new"
       id="path5321-7"
       cx="12.5"
       cy="36"
       inkscape:label="W1"
       r="2.5" />
    <circle
       style="fill:#00ff00;fill-opacity:1;stroke-width:0.24137932;enable-background:new"
       id="path5321-75"
       cx="32.5"
       cy="46"
       r="2.5"
       inkscape:label="IN2" />
    <circle
       style="fill:#ff0000;fill-opacity:1;stroke-width:0.24137931;enable-background:new"
       id="path5321-7-9"
       cx="32.5"
       cy="36"
       inkscape:label="W2"
       r="2.5" />
    <circle
       style="fill:#00ff00;fill-opacity:1;stroke-width:0.24137932;enable-background:new"
       id="path5321-2"
       cx="52.5"
       cy="46"
       r="2.5"
       inkscape:label="IN3" />
    <circle
       style="fill:#ff0000;fill-opacity:1;stroke-width:0.24137931;enable-background:new"
       id="path5321-7-2"
       cx="52.5"
       cy="36"
       inkscape:label="W3"
       r="2.5" />
    <circle
       style="fill:#00ff00;fill-opacity:1;stroke-width:0.24137932;enable-background:new"
       id="path5321-8-3"
       cx="52.5"
       cy="76"
       r="2.5"
       inkscape:label="IN8" />
    <circle
       style="fill:#ff0000;fill-opacity:1;stroke-width:0.24137931;enable-background:new"
       id="path5321-7-97-6"
       cx="52.5"
       cy="66"
       inkscape:label="W8"
       r="2.5" />
    <circle
       style="fill:#00ff00;fill-opacity:1;stroke-width:0.24137932;enable-background:new"
       id="path5321-1"
       cx="92.5"
       cy="46"
       r="2.5"
       inkscape:label="IN5" />
    <circle
       style="fill:#ff0000;fill-opacity:1;stroke-width:0.24137931;enable-background:new"
       id="path5321-7-29"
       cx="92.5"
       cy="36"
       inkscape:label="W5"
       r="2.5" />
    <circle
       style="fill:#00ff00;fill-opacity:1;stroke-width:0.24137932;enable-background:new"
       id="path5321-75-3"
       cx="12.5"
       cy="76"
       r="2.5"
       inkscape:label="IN6" />
    <circle
       style="fill:#ff0000;fill-opacity:1;stroke-width:0.24137931;enable-background:new"
       id="path5321-7-9-1"
       cx="12.5"
       cy="66"
       inkscape:label="W6"
       r="2.5" />
    <circle
       style="fill:#00ff00;fill-opacity:1;stroke-width:0.24137932;enable-background:new"
       id="path5321-2-9"
       cx="32.500004"
       cy="76"
       r="2.5"
       inkscape:label="IN7" />
    <circle
       style="fill:#ff0000;fill-opacity:1;stroke-width:0.24137931;enable-background:new"
       id="path5321-7-2-4"
       cx="32.500004"
       cy="66"
       inkscape:label="W7"
       r="2.5" />
    <circle
       style="fill:#0000ff;fill-opacity:1;stroke-width:0.24137932;enable-background:new"
       id="path5321-8-3-7"
       cx="92.5"
       cy="111"
       r="2.5"
       inkscape:label="FIRE" />
    <circle
       style="fill:#0000ff;fill-opacity:1;stroke-width:0.24137931;enable-background:new"
       id="path5321-7-97-6-8"
       cx="92.5"
       cy="101"
       inkscape:label="MEM"
       r="2.5" />
    <circle
       style="fill:#ff0000;fill-opacity:1;stroke-width:0.24137931;enable-background:new"
       id="path5321-7-97-6-8-4"
       cx="22.5"
       cy="106"
       inkscape:label="LEAK"
       r="2.5" />
    <circle
       style="fill:#ff0000;fill-opacity:1;stroke-width:0.24137931;enable-background:new"
       id="path5321-7-97-6-8-4-5"
       cx="42.5"
       cy="106"
       inkscape:label="REF"
       r="2.5" />
    <circle
       style="fill:#00ff00;fill-opacity:1;stroke-width:0.24137932;enable-background:new"
       id="path5321-8"
       cx="72.5"
       cy="46"
       r="2.5"
       inkscape:label="IN4" />
    <circle
       style="fill:#ff0000;fill-opacity:1;stroke-width:0.24137931;enable-background:new"
       id="path5321-7-97"
       cx="72.5"
       cy="36"
       inkscape:label="W4"
       r="2.5" />
    <circle
       style="display:inline;fill:#ff0000;fill-opacity:1;stroke-width:0.24137931;enable-background:new"
       id="path5321-7-97-6-8-4-5-3"
       cx="62.5"
       cy="106"
       inkscape:label="DELAY"
       r="2.5" />
    <circle
       style="display:inline;fill:#00ff00;fill-opacity:1;stroke-width:0.24137932;enable-background:new"
       id="path5321-8-3-3"
       cx="72.5"
       cy="76"
       r="2.5"
       inkscape:label="IN9" />
    <circle
       style="display:inline;fill:#ff0000;fill-opacity:1;stroke-width:0.24137931;enable-background:new"
       id="path5321-7-97-6-7"
       cx="72.5"
       cy="66"
       inkscape:label="W9"
       r="2.5" />
    <circle
       style="display:inline;fill:#00ff00;fill-opacity:1;stroke-width:0.24137932;enable-background:new"
       id="path5321-8-3-5"
       cx="92.5"
       cy="76"
       r="2.5"
       inkscape:label="IN10" />
    <circle
       style="display:inline;fill:#ff0000;fill-opacity:1;stroke-width:0.24137931;enable-background:new"
       id="path5321-7-97-6-9"
       cx="92.5"
       cy="66"
       inkscape:label="W10"
       r="2.5" />
    <circle
       style="display:inline;fill:#ff0000;fill-opacity:1;stroke-width:0.24137931;enable-background:new"
       id="path5321-7-97-6-8-3"
       cx="82.5"
       cy="106"
       inkscape:label="FIRE"
       r="2.5" />
    <g
       aria-label="MEM            FIRE"
       style="font-style:normal;font-weight:normal;font-size:10.58333302px;line-height:0;font-family:sans-serif;letter-spacing:0px;word-spacing:0px;fill:#000000;fill-opacity:1;stroke:none;stroke-width:0.26458332"
       id="text906">
      <path
         d="m 82.135452,98.599655 h 0.41479 l 0.525032,1.400087 0.527789,-1.400087 h 0.414789 v 2.057415 h -0.271473 v -1.806612 l -0.530545,1.411112 h -0.279742 l -0.530544,-1.411112 v 1.806612 h -0.270096 z"
         style="font-size:2.82222223px;line-height:0.1;text-align:end;text-anchor:end;fill:#ffffff;stroke-width:0.26458332"
         id="path956" />
      <path
         d="m 84.570446,98.599655 h 1.300868 v 0.234267 h -1.022505 v 0.609093 h 0.979785 v 0.234266 h -0.979785 v 0.745519 h 1.047309 v 0.23427 h -1.325672 z"
         style="font-size:2.82222223px;line-height:0.1;text-align:end;text-anchor:end;fill:#ffffff;stroke-width:0.26458332"
         id="path958" />
      <path
         d="m 86.353627,98.599655 h 0.41479 l 0.525032,1.400087 0.527789,-1.400087 h 0.414789 v 2.057415 h -0.271473 v -1.806612 l -0.530545,1.411112 h -0.279742 l -0.530545,-1.411112 v 1.806612 h -0.270095 z"
         style="font-size:2.82222223px;line-height:0.1;text-align:end;text-anchor:end;fill:#ffffff;stroke-width:0.26458332"
         id="path960" />
      <path
         d="m 82.588827,111.54274 h 1.182356 v 0.23427 H 82.86719 v 0.60633 h 0.815799 v 0.23427 H 82.86719 v 0.98254 h -0.278363 z"
         style="font-size:2.82222223px;line-height:0.1;text-align:end;text-anchor:end;fill:#ffffff;stroke-width:0.26458332"
         id="path962" />
      <path
         d="m 84.212156,111.54274 h 0.278363 v 2.05741 h -0.278363 z"
         style="font-size:2.82222223px;line-height:0.1;text-align:end;text-anchor:end;fill:#ffffff;stroke-width:0.26458332"
         id="path964" />
      <path
         d="m 86.020142,112.63553 q 0.08957,0.0303 0.173633,0.12953 0.08544,0.0992 0.170876,0.27285 l 0.282498,0.56224 h -0.299034 l -0.263205,-0.52779 q -0.101975,-0.2067 -0.198438,-0.27423 -0.09508,-0.0675 -0.260449,-0.0675 h -0.303168 v 0.86954 h -0.278364 v -2.05741 h 0.628385 q 0.352778,0 0.526411,0.14745 0.173633,0.14745 0.173633,0.44511 0,0.1943 -0.09095,0.32246 -0.08957,0.12816 -0.261827,0.17777 z m -0.697287,-0.86403 v 0.73036 h 0.350021 q 0.201194,0 0.303169,-0.0923 0.103352,-0.0937 0.103352,-0.27423 0,-0.18053 -0.103352,-0.27148 -0.101975,-0.0923 -0.303169,-0.0923 z"
         style="font-size:2.82222223px;line-height:0.1;text-align:end;text-anchor:end;fill:#ffffff;stroke-width:0.26458332"
         id="path966" />
      <path
         d="m 87.005439,111.54274 h 1.300868 v 0.23427 h -1.022504 v 0.60909 h 0.979785 v 0.23427 h -0.979785 v 0.74552 h 1.047309 v 0.23426 h -1.325673 z"
         style="font-size:2.82222223px;line-height:0.1;text-align:end;text-anchor:end;fill:#ffffff;stroke-width:0.26458332"
         id="path968" />
    </g>
  </g>
  <g
     inkscape:groupmode="layer"
     id="layer3"
     inkscape:label="text">
    <g
       aria-label="LIF"
       transform="matrix(1.967117,0,0,0.36827995,-130.5206,-2.8318422)"
       style="font-style:normal;font-weight:normal;font-size:40px;line-height:1.25;font-family:sans-serif;letter-spacing:0px;word-spacing:0px;fill:#000000;fill-opacity:1;stroke:none"
       id="flowRoot5256">
      <path
         d="m 66.783203,25.470703 h 3.945313 v 25.839844 h 14.199218 v 3.320312 H 66.783203 Z"
         style="fill:#ffffff"
         id="path5268"
         inkscape:connector-curvature="0" />
      <path
         d="m 89.068359,25.470703 h 3.945313 v 29.160156 h -3.945313 z"
         style="fill:#ffffff"
         id="path5270"
         inkscape:connector-curvature="0" />
      <path
         d="m 100.86523,25.470703 h 16.75782 v 3.320313 h -12.8125 v 8.59375 h 11.5625 v 3.320312 h -11.5625 v 13.925781 h -3.94532 z"
         style="fill:#ffffff"
         id="path5272"
         inkscape:connector-curvature="0" />
    </g>
    <g
       aria-label="N-EUROMORPHIC"
       transform="matrix(1.5387302,0,0,0.6498865,0,5.4790253)"
       style="font-style:normal;font-weight:normal;font-size:7.44182014px;line-height:1.25;font-family:sans-serif;letter-spacing:0px;word-spacing:0px;fill:#000000;fill-opacity:1;stroke:none;stroke-width:0.1860455"
       id="text5266">
      <path
         d="m 1.2891386,19.981523 h 0.9883668 l 2.4055102,4.538493 V 19.981523 H 5.395221 v 5.425116 H 4.4068543 L 2.0013441,20.868146 v 4.538493 H 1.2891386 Z"
         style="fill:#ffffff;stroke-width:0.1860455"
         id="path5275"
         inkscape:connector-curvature="0" />
      <path
         d="m 6.488965,23.070169 h 1.9585649 v 0.595927 H 6.488965 Z"
         style="fill:#ffffff;stroke-width:0.1860455"
         id="path5277"
         inkscape:connector-curvature="0" />
      <path
         d="m 9.5412739,19.981523 h 3.4302141 v 0.617729 h -2.696206 v 1.606096 h 2.583561 v 0.61773 h -2.583561 v 1.965832 h 2.761613 v 0.617729 H 9.5412739 Z"
         style="fill:#ffffff;stroke-width:0.1860455"
         id="path5279"
         inkscape:connector-curvature="0" />
      <path
         d="m 14.159708,19.981523 h 0.737641 v 3.295767 q 0,0.872088 0.316132,1.257261 0.316132,0.381538 1.024704,0.381538 0.704938,0 1.02107,-0.381538 0.316132,-0.385173 0.316132,-1.257261 v -3.295767 h 0.737642 v 3.38661 q 0,1.06104 -0.526887,1.602462 -0.523253,0.541421 -1.547957,0.541421 -1.028337,0 -1.555224,-0.541421 -0.523253,-0.541422 -0.523253,-1.602462 z"
         style="fill:#ffffff;stroke-width:0.1860455"
         id="path5281"
         inkscape:connector-curvature="0" />
      <path
         d="m 22.262861,22.863048 q 0.236191,0.07994 0.457846,0.341568 0.22529,0.261627 0.450579,0.719473 l 0.744909,1.48255 h -0.788513 l -0.694037,-1.391707 q -0.268894,-0.545056 -0.523253,-0.723107 -0.250725,-0.178051 -0.686769,-0.178051 h -0.799415 v 2.292865 h -0.734007 v -5.425116 h 1.656967 q 0.930228,0 1.388074,0.388806 0.457847,0.388806 0.457847,1.173686 0,0.512352 -0.239825,0.850286 -0.23619,0.337934 -0.690403,0.468747 z m -1.838653,-2.27833 v 1.925861 h 0.92296 q 0.530521,0 0.799415,-0.243458 0.272527,-0.247091 0.272527,-0.723106 0,-0.476015 -0.272527,-0.715839 -0.268894,-0.243458 -0.799415,-0.243458 z"
         style="fill:#ffffff;stroke-width:0.1860455"
         id="path5283"
         inkscape:connector-curvature="0" />
      <path
         d="m 27.062981,20.47934 q -0.799414,0 -1.271796,0.595927 -0.468747,0.595927 -0.468747,1.624265 0,1.024703 0.468747,1.62063 0.472382,0.595927 1.271796,0.595927 0.799414,0 1.264528,-0.595927 0.468747,-0.595927 0.468747,-1.62063 0,-1.028338 -0.468747,-1.624265 -0.465114,-0.595927 -1.264528,-0.595927 z m 0,-0.595927 q 1.140982,0 1.824118,0.766711 0.683136,0.763077 0.683136,2.049408 0,1.282696 -0.683136,2.049407 -0.683136,0.763077 -1.824118,0.763077 -1.144616,0 -1.831386,-0.763077 -0.683135,-0.763077 -0.683135,-2.049407 0,-1.286331 0.683135,-2.049408 0.68677,-0.766711 1.831386,-0.766711 z"
         style="fill:#ffffff;stroke-width:0.1860455"
         id="path5285"
         inkscape:connector-curvature="0" />
      <path
         d="m 30.718485,19.981523 h 1.093744 l 1.38444,3.691841 1.391708,-3.691841 h 1.093744 v 5.425116 h -0.71584 v -4.763782 l -1.398974,3.72091 h -0.737642 l -1.398975,-3.72091 v 4.763782 h -0.712205 z"
         style="fill:#ffffff;stroke-width:0.1860455"
         id="path5287"
         inkscape:connector-curvature="0" />
      <path
         d="m 39.341259,20.47934 q -0.799414,0 -1.271795,0.595927 -0.468748,0.595927 -0.468748,1.624265 0,1.024703 0.468748,1.62063 0.472381,0.595927 1.271795,0.595927 0.799415,0 1.264528,-0.595927 0.468748,-0.595927 0.468748,-1.62063 0,-1.028338 -0.468748,-1.624265 -0.465113,-0.595927 -1.264528,-0.595927 z m 0,-0.595927 q 1.140982,0 1.824118,0.766711 0.683136,0.763077 0.683136,2.049408 0,1.282696 -0.683136,2.049407 -0.683136,0.763077 -1.824118,0.763077 -1.144616,0 -1.831385,-0.763077 -0.683136,-0.763077 -0.683136,-2.049407 0,-1.286331 0.683136,-2.049408 0.686769,-0.766711 1.831385,-0.766711 z"
         style="fill:#ffffff;stroke-width:0.1860455"
         id="path5289"
         inkscape:connector-curvature="0" />
      <path
         d="m 45.569422,22.863048 q 0.23619,0.07994 0.457846,0.341568 0.225289,0.261627 0.450579,0.719473 l 0.744909,1.48255 h -0.788513 l -0.694037,-1.391707 q -0.268894,-0.545056 -0.523253,-0.723107 -0.250726,-0.178051 -0.68677,-0.178051 h -0.799414 v 2.292865 h -0.734008 v -5.425116 h 1.656968 q 0.930227,0 1.388074,0.388806 0.457846,0.388806 0.457846,1.173686 0,0.512352 -0.239824,0.850286 -0.236191,0.337934 -0.690403,0.468747 z m -1.838653,-2.27833 v 1.925861 h 0.92296 q 0.53052,0 0.799414,-0.243458 0.272528,-0.247091 0.272528,-0.723106 0,-0.476015 -0.272528,-0.715839 -0.268894,-0.243458 -0.799414,-0.243458 z"
         style="fill:#ffffff;stroke-width:0.1860455"
         id="path5291"
         inkscape:connector-curvature="0" />
      <path
         d="m 48.901526,20.584718 v 2.038506 h 0.92296 q 0.512352,0 0.792147,-0.26526 0.279795,-0.26526 0.279795,-0.75581 0,-0.486916 -0.279795,-0.752176 -0.279795,-0.26526 -0.792147,-0.26526 z m -0.734008,-0.603195 h 1.656968 q 0.912059,0 1.377173,0.414242 0.468747,0.410608 0.468747,1.206389 0,0.803048 -0.468747,1.213656 -0.465114,0.410608 -1.377173,0.410608 h -0.92296 v 2.180221 h -0.734008 z"
         style="fill:#ffffff;stroke-width:0.1860455"
         id="path5293"
         inkscape:connector-curvature="0" />
      <path
         d="m 52.65514,19.981523 h 0.734007 v 2.223825 h 2.667137 v -2.223825 h 0.734008 v 5.425116 h -0.734008 v -2.583561 h -2.667137 v 2.583561 H 52.65514 Z"
         style="fill:#ffffff;stroke-width:0.1860455"
         id="path5295"
         inkscape:connector-curvature="0" />
      <path
         d="m 58.251037,19.981523 h 0.734008 v 5.425116 h -0.734008 z"
         style="fill:#ffffff;stroke-width:0.1860455"
         id="path5297"
         inkscape:connector-curvature="0" />
      <path
         d="m 64.508271,20.399399 v 0.773978 q -0.370638,-0.345201 -0.792147,-0.515985 -0.417876,-0.170784 -0.890257,-0.170784 -0.930227,0 -1.424411,0.570491 -0.494183,0.566857 -0.494183,1.642433 0,1.071942 0.494183,1.642433 0.494184,0.566857 1.424411,0.566857 0.472381,0 0.890257,-0.170784 0.421509,-0.170784 0.792147,-0.515986 v 0.766711 q -0.385172,0.261627 -0.817583,0.39244 -0.428777,0.130813 -0.908425,0.130813 -1.231825,0 -1.940397,-0.752176 -0.708571,-0.75581 -0.708571,-2.060308 0,-1.308133 0.708571,-2.060309 0.708572,-0.75581 1.940397,-0.75581 0.486916,0 0.915693,0.130813 0.43241,0.12718 0.810315,0.385173 z"
         style="fill:#ffffff;stroke-width:0.1860455"
         id="path5299"
         inkscape:connector-curvature="0" />
    </g>
  </g>
</svg>
