<?xml version="1.0" encoding="UTF-8" standalone="no"?>
<!-- Created with Inkscape (http://www.inkscape.org/) -->

<svg
   xmlns:dc="http://purl.org/dc/elements/1.1/"
   xmlns:cc="http://creativecommons.org/ns#"
   xmlns:rdf="http://www.w3.org/1999/02/22-rdf-syntax-ns#"
   xmlns:svg="http://www.w3.org/2000/svg"
   xmlns="http://www.w3.org/2000/svg"
   xmlns:sodipodi="http://sodipodi.sourceforge.net/DTD/sodipodi-0.dtd"
   xmlns:inkscape="http://www.inkscape.org/namespaces/inkscape"
   width="101.6mm"
   height="128.5mm"
   viewBox="0 0 101.6 128.5"
   version="1.1"
   id="svg8"
   style="enable-background:new"
   inkscape:version="0.92.5 (2060ec1f9f, 2020-04-08)"
   sodipodi:docname="Reservoir.svg">
  <defs
     id="defs2">
    <filter
       style="color-interpolation-filters:sRGB;"
       inkscape:label="Feather"
       id="filter1191">
      <feGaussianBlur
         stdDeviation="100"
         result="blur"
         id="feGaussianBlur1183" />
      <feComposite
         in="SourceGraphic"
         in2="blur"
         operator="atop"
         result="composite1"
         id="feComposite1185" />
      <feComposite
         in2="composite1"
         operator="in"
         result="composite2"
         id="feComposite1187" />
      <feComposite
         in2="composite2"
         operator="in"
         result="composite3"
         id="feComposite1189" />
    </filter>
  </defs>
  <sodipodi:namedview
     id="base"
     pagecolor="#ffffff"
     bordercolor="#666666"
     borderopacity="1.0"
     inkscape:pageopacity="0.0"
     inkscape:pageshadow="2"
     inkscape:zoom="5.6"
     inkscape:cx="205.70384"
     inkscape:cy="25.816774"
     inkscape:document-units="mm"
     inkscape:current-layer="layer3"
     showgrid="false"
     inkscape:window-width="1920"
     inkscape:window-height="1018"
     inkscape:window-x="0"
     inkscape:window-y="30"
     inkscape:window-maximized="1" />
  <metadata
     id="metadata5">
    <rdf:RDF>
      <cc:Work
         rdf:about="">
        <dc:format>image/svg+xml</dc:format>
        <dc:type
           rdf:resource="http://purl.org/dc/dcmitype/StillImage" />
        <dc:title />
      </cc:Work>
    </rdf:RDF>
  </metadata>
  <g
     inkscape:groupmode="layer"
     id="layer2"
     inkscape:label="Background">
    <path
       style="fill:none;stroke:#000000;stroke-width:0.26458332px;stroke-linecap:butt;stroke-linejoin:miter;stroke-opacity:1"
       d="M -0.18898809,-0.20089573 101.86458,0.17708046 101.67559,128.68898 H -0.56696427 Z"
       id="path5197"
       inkscape:connector-curvature="0" />
    <path
       style="fill:#000000;fill-opacity:1;stroke-width:0.19056478"
       d="m -0.53867725,126.3655 c 0.0620531,-1.65243 0.16669539,-30.805863 0.23253849,-64.785406 L -0.18642405,-0.20089573 48.001836,-0.07981524 c 26.503542,0.06659377 49.537528,0.17276344 51.186633,0.23593158 l 2.998371,0.11485129 V 29.02185 c 0,15.812985 -0.057,44.860248 -0.12674,64.549478 l -0.12675,35.798592 H 50.640923 -0.65150106 Z"
       id="path5199"
       inkscape:connector-curvature="0" />
    <rect
       style="fill:#ffffff;fill-opacity:1;stroke-width:0.26347363"
       id="rect1375"
       width="79.33036"
       height="10"
       x="24.044645"
       y="-95.651787"
       transform="rotate(90)" />
  </g>
  <g
     inkscape:label="Layer 1"
     inkscape:groupmode="layer"
     id="layer1"
     style="display:inline"
     transform="translate(0,-168.5)" />
  <g
     inkscape:groupmode="layer"
     id="layer5"
     inkscape:label="components"
     style="display:inline">
    <circle
       style="fill:#00ff00;fill-opacity:1;stroke-width:0.24137932"
       id="path5321"
       cx="10.5"
       cy="28.5"
       r="2.5"
       inkscape:label="IN1" />
    <circle
       style="fill:#ff0000;fill-opacity:1;stroke-width:0.24137931;enable-background:new"
       id="path5321-7"
       cx="-118"
       cy="20.5"
       inkscape:label="W_VAR"
       r="2.5"
       transform="rotate(-90)" />
    <circle
       style="fill:#00ff00;fill-opacity:1;stroke-width:0.24137932;enable-background:new"
       id="path5321-75"
       cx="10.5"
       cy="38.5"
       r="2.5"
       inkscape:label="IN2" />
    <circle
       style="fill:#ff0000;fill-opacity:1;stroke-width:0.24137931;enable-background:new"
       id="path5321-7-9"
       cx="-118"
       cy="40.5"
       inkscape:label="L_VAR"
       r="2.5"
       transform="rotate(-90)" />
    <circle
       style="fill:#00ff00;fill-opacity:1;stroke-width:0.24137932;enable-background:new"
       id="path5321-2"
       cx="10.5"
       cy="48.5"
       r="2.5"
       inkscape:label="IN3" />
    <circle
       style="fill:#ff0000;fill-opacity:1;stroke-width:0.24137931;enable-background:new"
       id="path5321-7-2"
       cx="-118"
       cy="60.5"
       inkscape:label="R_VAR"
       r="2.5"
       transform="rotate(-90)" />
    <circle
       style="fill:#ff0000;fill-opacity:1;stroke-width:0.24137931;enable-background:new"
       id="path5321-7-97-6"
       cx="-108"
       cy="40.5"
       inkscape:label="L_AVG"
       r="2.5"
       transform="rotate(-90)" />
    <circle
       style="fill:#00ff00;fill-opacity:1;stroke-width:0.24137932;enable-background:new"
       id="path5321-1"
       cx="10.5"
       cy="68.5"
       r="2.5"
       inkscape:label="IN5" />
    <circle
       style="fill:#ff0000;fill-opacity:1;stroke-width:0.24137931;enable-background:new"
       id="path5321-7-29"
       cx="-108"
       cy="20.5"
       inkscape:label="W_AVG"
       r="2.5"
       transform="rotate(-90)" />
    <circle
       style="fill:#00ff00;fill-opacity:1;stroke-width:0.24137932;enable-background:new"
       id="path5321-75-3"
       cx="10.5"
       cy="78.5"
       r="2.5"
       inkscape:label="IN6" />
    <circle
       style="fill:#00ff00;fill-opacity:1;stroke-width:0.24137932;enable-background:new"
       id="path5321-2-9"
       cx="10.5"
       cy="88.5"
       r="2.5"
       inkscape:label="IN7" />
    <circle
       style="fill:#ff0000;fill-opacity:1;stroke-width:0.24137931;enable-background:new"
       id="path5321-7-2-4"
       cx="-108"
       cy="60.5"
       inkscape:label="R_AVG"
       r="2.5"
       transform="rotate(-90)" />
    <circle
       style="fill:#ff0000;fill-opacity:1;stroke-width:0.24137931;enable-background:new"
       id="path5321-7-97-6-8-4"
       cx="63.5"
       cy="33.5"
       inkscape:label="DIST"
       r="2.5" />
    <circle
       style="fill:#ff0000;fill-opacity:1;stroke-width:0.24137931;enable-background:new"
       id="path5321-7-97-6-8-4-5"
       cx="37.5"
       cy="33.5"
       inkscape:label="NUM_NEURONS"
       r="2.5" />
    <circle
       style="fill:#00ff00;fill-opacity:1;stroke-width:0.24137932;enable-background:new"
       id="path5321-8"
       cx="10.5"
       cy="58.5"
       r="2.5"
       inkscape:label="IN4" />
    <circle
       style="fill:#ff0000;fill-opacity:1;stroke-width:0.24137931;enable-background:new"
       id="path5321-7-97"
       cx="-118"
       cy="80.5"
       inkscape:label="D_VAR"
       r="2.5"
       transform="rotate(-90)" />
    <circle
       style="display:inline;fill:#0000ff;fill-opacity:1;stroke-width:0.24137931;enable-background:new"
       id="path5321-7-2-4-5-0"
       cx="90.5"
       cy="98.5"
       inkscape:label="OUT8"
       r="2.5" />
    <circle
       style="display:inline;fill:#ff0000;fill-opacity:1;stroke-width:0.24137931;enable-background:new"
       id="path5321-7-2-4-89"
       cx="-108"
       cy="80.5"
       inkscape:label="D_AVG"
       r="2.5"
       transform="rotate(-90)" />
    <circle
       style="display:inline;fill:#0000ff;fill-opacity:1;stroke-width:0.24137931;enable-background:new"
       id="path5321-7-20"
       cx="90.5"
       cy="28.5"
       inkscape:label="OUT1"
       r="2.5" />
    <circle
       style="display:inline;fill:#0000ff;fill-opacity:1;stroke-width:0.24137931;enable-background:new"
       id="path5321-7-9-61"
       cx="90.5"
       cy="38.5"
       inkscape:label="OUT2"
       r="2.5" />
    <circle
       style="display:inline;fill:#0000ff;fill-opacity:1;stroke-width:0.24137931;enable-background:new"
       id="path5321-7-2-55"
       cx="90.5"
       cy="48.5"
       inkscape:label="OUT3"
       r="2.5" />
    <circle
       style="display:inline;fill:#0000ff;fill-opacity:1;stroke-width:0.24137931;enable-background:new"
       id="path5321-7-97-6-4"
       cx="90.5"
       cy="78.5"
       inkscape:label="OUT6"
       r="2.5" />
    <circle
       style="display:inline;fill:#0000ff;fill-opacity:1;stroke-width:0.24137931;enable-background:new"
       id="path5321-7-29-76"
       cx="90.5"
       cy="68.5"
       inkscape:label="OUT5"
       r="2.5" />
    <circle
       style="display:inline;fill:#0000ff;fill-opacity:1;stroke-width:0.24137931;enable-background:new"
       id="path5321-7-2-4-5"
       cx="90.5"
       cy="88.5"
       inkscape:label="OUT7"
       r="2.5" />
    <circle
       style="display:inline;fill:#0000ff;fill-opacity:1;stroke-width:0.24137931;enable-background:new"
       id="path5321-7-97-69"
       cx="90.5"
       cy="58.5"
       inkscape:label="OUT4"
       r="2.5" />
    <circle
       style="display:inline;fill:#00ff00;fill-opacity:1;stroke-width:0.24137932;enable-background:new"
       id="path5321-2-9-7"
       cx="10.5"
       cy="98.5"
       r="2.5"
       inkscape:label="IN8" />
    <circle
       style="display:inline;fill:#00ff00;fill-opacity:1;stroke-width:0.24137932;enable-background:new"
       id="path5321-2-9-7-2"
       cx="50.5"
       cy="73.5"
       r="2.5"
       inkscape:label="APPLY" />
    <circle
       style="display:inline;fill:#ff0000;fill-opacity:1;stroke-width:0.24137932;enable-background:new"
       id="path5321-2-9-7-28"
       cx="50.5"
       cy="63.5"
       r="2.5"
       inkscape:label="APPLY" />
  </g>
  <g
     inkscape:groupmode="layer"
     id="layer3"
     inkscape:label="text"
     style="display:inline">
    <g
       aria-label="LIF"
       transform="matrix(1.967117,0,0,0.36827995,-130.5206,-2.8318422)"
       style="font-style:normal;font-weight:normal;font-size:40px;line-height:1.25;font-family:sans-serif;letter-spacing:0px;word-spacing:0px;fill:#000000;fill-opacity:1;stroke:none"
       id="flowRoot5256" />
    <g
       aria-label="N-EUROMORPHIC"
       transform="matrix(1.5387302,0,0,0.6498865,0,5.4790253)"
       style="font-style:normal;font-weight:normal;font-size:7.44182014px;line-height:1.25;font-family:sans-serif;letter-spacing:0px;word-spacing:0px;fill:#000000;fill-opacity:1;stroke:none;stroke-width:0.1860455"
       id="text5266">
      <path
         d="m 1.2891386,19.981523 h 0.9883668 l 2.4055102,4.538493 V 19.981523 H 5.395221 v 5.425116 H 4.4068543 L 2.0013441,20.868146 v 4.538493 H 1.2891386 Z"
         style="fill:#ffffff;stroke-width:0.1860455"
         id="path5275"
         inkscape:connector-curvature="0" />
      <path
         d="m 6.488965,23.070169 h 1.9585649 v 0.595927 H 6.488965 Z"
         style="fill:#ffffff;stroke-width:0.1860455"
         id="path5277"
         inkscape:connector-curvature="0" />
      <path
         d="m 9.5412739,19.981523 h 3.4302141 v 0.617729 h -2.696206 v 1.606096 h 2.583561 v 0.61773 h -2.583561 v 1.965832 h 2.761613 v 0.617729 H 9.5412739 Z"
         style="fill:#ffffff;stroke-width:0.1860455"
         id="path5279"
         inkscape:connector-curvature="0" />
      <path
         d="m 14.159708,19.981523 h 0.737641 v 3.295767 q 0,0.872088 0.316132,1.257261 0.316132,0.381538 1.024704,0.381538 0.704938,0 1.02107,-0.381538 0.316132,-0.385173 0.316132,-1.257261 v -3.295767 h 0.737642 v 3.38661 q 0,1.06104 -0.526887,1.602462 -0.523253,0.541421 -1.547957,0.541421 -1.028337,0 -1.555224,-0.541421 -0.523253,-0.541422 -0.523253,-1.602462 z"
         style="fill:#ffffff;stroke-width:0.1860455"
         id="path5281"
         inkscape:connector-curvature="0" />
      <path
         d="m 22.262861,22.863048 q 0.236191,0.07994 0.457846,0.341568 0.22529,0.261627 0.450579,0.719473 l 0.744909,1.48255 h -0.788513 l -0.694037,-1.391707 q -0.268894,-0.545056 -0.523253,-0.723107 -0.250725,-0.178051 -0.686769,-0.178051 h -0.799415 v 2.292865 h -0.734007 v -5.425116 h 1.656967 q 0.930228,0 1.388074,0.388806 0.457847,0.388806 0.457847,1.173686 0,0.512352 -0.239825,0.850286 -0.23619,0.337934 -0.690403,0.468747 z m -1.838653,-2.27833 v 1.925861 h 0.92296 q 0.530521,0 0.799415,-0.243458 0.272527,-0.247091 0.272527,-0.723106 0,-0.476015 -0.272527,-0.715839 -0.268894,-0.243458 -0.799415,-0.243458 z"
         style="fill:#ffffff;stroke-width:0.1860455"
         id="path5283"
         inkscape:connector-curvature="0" />
      <path
         d="m 27.062981,20.47934 q -0.799414,0 -1.271796,0.595927 -0.468747,0.595927 -0.468747,1.624265 0,1.024703 0.468747,1.62063 0.472382,0.595927 1.271796,0.595927 0.799414,0 1.264528,-0.595927 0.468747,-0.595927 0.468747,-1.62063 0,-1.028338 -0.468747,-1.624265 -0.465114,-0.595927 -1.264528,-0.595927 z m 0,-0.595927 q 1.140982,0 1.824118,0.766711 0.683136,0.763077 0.683136,2.049408 0,1.282696 -0.683136,2.049407 -0.683136,0.763077 -1.824118,0.763077 -1.144616,0 -1.831386,-0.763077 -0.683135,-0.763077 -0.683135,-2.049407 0,-1.286331 0.683135,-2.049408 0.68677,-0.766711 1.831386,-0.766711 z"
         style="fill:#ffffff;stroke-width:0.1860455"
         id="path5285"
         inkscape:connector-curvature="0" />
      <path
         d="m 30.718485,19.981523 h 1.093744 l 1.38444,3.691841 1.391708,-3.691841 h 1.093744 v 5.425116 h -0.71584 v -4.763782 l -1.398974,3.72091 h -0.737642 l -1.398975,-3.72091 v 4.763782 h -0.712205 z"
         style="fill:#ffffff;stroke-width:0.1860455"
         id="path5287"
         inkscape:connector-curvature="0" />
      <path
         d="m 39.341259,20.47934 q -0.799414,0 -1.271795,0.595927 -0.468748,0.595927 -0.468748,1.624265 0,1.024703 0.468748,1.62063 0.472381,0.595927 1.271795,0.595927 0.799415,0 1.264528,-0.595927 0.468748,-0.595927 0.468748,-1.62063 0,-1.028338 -0.468748,-1.624265 -0.465113,-0.595927 -1.264528,-0.595927 z m 0,-0.595927 q 1.140982,0 1.824118,0.766711 0.683136,0.763077 0.683136,2.049408 0,1.282696 -0.683136,2.049407 -0.683136,0.763077 -1.824118,0.763077 -1.144616,0 -1.831385,-0.763077 -0.683136,-0.763077 -0.683136,-2.049407 0,-1.286331 0.683136,-2.049408 0.686769,-0.766711 1.831385,-0.766711 z"
         style="fill:#ffffff;stroke-width:0.1860455"
         id="path5289"
         inkscape:connector-curvature="0" />
      <path
         d="m 45.569422,22.863048 q 0.23619,0.07994 0.457846,0.341568 0.225289,0.261627 0.450579,0.719473 l 0.744909,1.48255 h -0.788513 l -0.694037,-1.391707 q -0.268894,-0.545056 -0.523253,-0.723107 -0.250726,-0.178051 -0.68677,-0.178051 h -0.799414 v 2.292865 h -0.734008 v -5.425116 h 1.656968 q 0.930227,0 1.388074,0.388806 0.457846,0.388806 0.457846,1.173686 0,0.512352 -0.239824,0.850286 -0.236191,0.337934 -0.690403,0.468747 z m -1.838653,-2.27833 v 1.925861 h 0.92296 q 0.53052,0 0.799414,-0.243458 0.272528,-0.247091 0.272528,-0.723106 0,-0.476015 -0.272528,-0.715839 -0.268894,-0.243458 -0.799414,-0.243458 z"
         style="fill:#ffffff;stroke-width:0.1860455"
         id="path5291"
         inkscape:connector-curvature="0" />
      <path
         d="m 48.901526,20.584718 v 2.038506 h 0.92296 q 0.512352,0 0.792147,-0.26526 0.279795,-0.26526 0.279795,-0.75581 0,-0.486916 -0.279795,-0.752176 -0.279795,-0.26526 -0.792147,-0.26526 z m -0.734008,-0.603195 h 1.656968 q 0.912059,0 1.377173,0.414242 0.468747,0.410608 0.468747,1.206389 0,0.803048 -0.468747,1.213656 -0.465114,0.410608 -1.377173,0.410608 h -0.92296 v 2.180221 h -0.734008 z"
         style="fill:#ffffff;stroke-width:0.1860455"
         id="path5293"
         inkscape:connector-curvature="0" />
      <path
         d="m 52.65514,19.981523 h 0.734007 v 2.223825 h 2.667137 v -2.223825 h 0.734008 v 5.425116 h -0.734008 v -2.583561 h -2.667137 v 2.583561 H 52.65514 Z"
         style="fill:#ffffff;stroke-width:0.1860455"
         id="path5295"
         inkscape:connector-curvature="0" />
      <path
         d="m 58.251037,19.981523 h 0.734008 v 5.425116 h -0.734008 z"
         style="fill:#ffffff;stroke-width:0.1860455"
         id="path5297"
         inkscape:connector-curvature="0" />
      <path
         d="m 64.508271,20.399399 v 0.773978 q -0.370638,-0.345201 -0.792147,-0.515985 -0.417876,-0.170784 -0.890257,-0.170784 -0.930227,0 -1.424411,0.570491 -0.494183,0.566857 -0.494183,1.642433 0,1.071942 0.494183,1.642433 0.494184,0.566857 1.424411,0.566857 0.472381,0 0.890257,-0.170784 0.421509,-0.170784 0.792147,-0.515986 v 0.766711 q -0.385172,0.261627 -0.817583,0.39244 -0.428777,0.130813 -0.908425,0.130813 -1.231825,0 -1.940397,-0.752176 -0.708571,-0.75581 -0.708571,-2.060308 0,-1.308133 0.708571,-2.060309 0.708572,-0.75581 1.940397,-0.75581 0.486916,0 0.915693,0.130813 0.43241,0.12718 0.810315,0.385173 z"
         style="fill:#ffffff;stroke-width:0.1860455"
         id="path5299"
         inkscape:connector-curvature="0" />
    </g>
    <g
       aria-label="RESERVOIR"
       transform="scale(1.1180801,0.8943903)"
       style="font-style:normal;font-weight:normal;font-size:16.12838936px;line-height:1.25;font-family:sans-serif;letter-spacing:0px;word-spacing:0px;fill:#000000;fill-opacity:1;stroke:none;stroke-width:0.40320972"
       id="text971">
      <path
         d="m 6.3253531,13.554031 q 0.5118874,0.173254 0.992274,0.740268 0.4882618,0.567013 0.9765236,1.559287 l 1.6144139,3.213078 H 8.1996484 L 6.6954871,16.050466 Q 6.112723,14.869187 5.5614597,14.483303 5.0180716,14.097419 4.0730488,14.097419 H 2.3405069 v 4.969245 H 0.74971854 V 7.3090049 H 4.3408052 q 2.0160487,0 3.0083227,0.8426453 0.9922739,0.8426454 0.9922739,2.5436868 0,1.110401 -0.5197625,1.842794 -0.5118874,0.732393 -1.4962862,1.0159 z M 2.3405069,8.6162865 v 4.1738505 h 2.0002983 q 1.1497778,0 1.7325419,-0.527638 0.5906392,-0.535512 0.5906392,-1.567162 0,-1.0316503 -0.5906392,-1.5514128 Q 5.490583,8.6162865 4.3408052,8.6162865 Z"
         style="fill:#ffffff;stroke-width:0.40320972"
         id="path973"
         inkscape:connector-curvature="0" />
      <path
         d="m 11.956114,7.3090049 h 7.434179 v 1.3387823 h -5.843391 v 3.4808338 h 5.59926 v 1.338783 h -5.59926 v 4.260477 h 5.985145 v 1.338783 h -7.575933 z"
         style="fill:#ffffff;stroke-width:0.40320972"
         id="path975"
         inkscape:connector-curvature="0" />
      <path
         d="M 29.194906,7.6948892 V 9.2463017 Q 28.289259,8.8131662 27.48599,8.6005361 26.682721,8.3879059 25.934578,8.3879059 q -1.299407,0 -2.008174,0.5040122 -0.700892,0.5040122 -0.700892,1.4332849 0,0.779644 0.464636,1.181278 0.472512,0.39376 1.779793,0.637891 l 0.960774,0.196879 q 1.779792,0.338634 2.622438,1.197029 0.85052,0.850521 0.85052,2.283805 0,1.708917 -1.149777,2.590938 -1.141903,0.882021 -3.354831,0.882021 -0.834771,0 -1.779793,-0.189004 -0.937148,-0.189005 -1.945172,-0.559139 v -1.638039 q 0.968648,0.543388 1.89792,0.819019 0.929273,0.275632 1.827045,0.275632 1.362407,0 2.102675,-0.535513 0.740268,-0.535513 0.740268,-1.527787 0,-0.866271 -0.535513,-1.354532 -0.527637,-0.488262 -1.740417,-0.732393 L 24.99743,13.664283 q -1.779793,-0.354383 -2.575187,-1.110401 -0.795394,-0.756019 -0.795394,-2.102676 0,-1.5592879 1.094651,-2.4570596 1.102527,-0.8977716 3.031948,-0.8977716 0.826895,0 1.685291,0.1496286 0.858396,0.1496286 1.756167,0.4488858 z"
         style="fill:#ffffff;stroke-width:0.40320972"
         id="path977"
         inkscape:connector-curvature="0" />
      <path
         d="m 32.384358,7.3090049 h 7.43418 v 1.3387823 h -5.843391 v 3.4808338 h 5.59926 v 1.338783 h -5.59926 v 4.260477 h 5.985144 v 1.338783 h -7.575933 z"
         style="fill:#ffffff;stroke-width:0.40320972"
         id="path979"
         inkscape:connector-curvature="0" />
      <path
         d="m 48.150487,13.554031 q 0.511888,0.173254 0.992274,0.740268 0.488262,0.567013 0.976524,1.559287 l 1.614414,3.213078 h -1.708916 l -1.504162,-3.016198 q -0.582764,-1.181279 -1.134027,-1.567163 -0.543388,-0.385884 -1.488411,-0.385884 h -1.732542 v 4.969245 H 42.574853 V 7.3090049 h 3.591087 q 2.016048,0 3.008322,0.8426453 0.992274,0.8426454 0.992274,2.5436868 0,1.110401 -0.519762,1.842794 -0.511888,0.732393 -1.496287,1.0159 z M 44.165641,8.6162865 v 4.1738505 h 2.000299 q 1.149777,0 1.732541,-0.527638 0.59064,-0.535512 0.59064,-1.567162 0,-1.0316503 -0.59064,-1.5514128 Q 47.315717,8.6162865 46.16594,8.6162865 Z"
         style="fill:#ffffff;stroke-width:0.40320972"
         id="path981"
         inkscape:connector-curvature="0" />
      <path
         d="M 55.931176,19.066664 51.442318,7.3090049 h 1.661665 l 3.724965,9.8991141 3.73284,-9.8991141 h 1.65379 L 57.734595,19.066664 Z"
         style="fill:#ffffff;stroke-width:0.40320972"
         id="path983"
         inkscape:connector-curvature="0" />
      <path
         d="m 68.421227,8.3879059 q -1.732542,0 -2.756317,1.2915312 -1.015899,1.2915309 -1.015899,3.5202099 0,2.220804 1.015899,3.512335 1.023775,1.291531 2.756317,1.291531 1.732542,0 2.740566,-1.291531 1.0159,-1.291531 1.0159,-3.512335 0,-2.228679 -1.0159,-3.5202099 -1.008024,-1.2915312 -2.740566,-1.2915312 z m 0,-1.2915311 q 2.47281,0 3.953345,1.6616651 1.480536,1.6537901 1.480536,4.4416071 0,2.779942 -1.480536,4.441607 -1.480535,1.65379 -3.953345,1.65379 -2.480685,0 -3.969096,-1.65379 -1.480536,-1.65379 -1.480536,-4.441607 0,-2.787817 1.480536,-4.4416071 1.488411,-1.6616651 3.969096,-1.6616651 z"
         style="fill:#ffffff;stroke-width:0.40320972"
         id="path985"
         inkscape:connector-curvature="0" />
      <path
         d="m 76.343667,7.3090049 h 1.590788 V 19.066664 h -1.590788 z"
         style="fill:#ffffff;stroke-width:0.40320972"
         id="path987"
         inkscape:connector-curvature="0" />
      <path
         d="m 86.675916,13.554031 q 0.511888,0.173254 0.992274,0.740268 0.488262,0.567013 0.976524,1.559287 l 1.614414,3.213078 H 88.550211 L 87.04605,16.050466 Q 86.463286,14.869187 85.912023,14.483303 85.368635,14.097419 84.423612,14.097419 H 82.69107 v 4.969245 H 81.100282 V 7.3090049 h 3.591086 q 2.016049,0 3.008323,0.8426453 0.992274,0.8426454 0.992274,2.5436868 0,1.110401 -0.519763,1.842794 -0.511887,0.732393 -1.496286,1.0159 z M 82.69107,8.6162865 v 4.1738505 h 2.000298 q 1.149778,0 1.732542,-0.527638 0.590639,-0.535512 0.590639,-1.567162 0,-1.0316503 -0.590639,-1.5514128 -0.582764,-0.5276377 -1.732542,-0.5276377 z"
         style="fill:#ffffff;stroke-width:0.40320972"
         id="path989"
         inkscape:connector-curvature="0" />
    </g>
    <g
       aria-label="WEIGHT            LEAK         REFRACTORY       DELAY                                              PERIOD"
       style="font-style:normal;font-weight:normal;font-size:10.58333302px;line-height:0;font-family:sans-serif;letter-spacing:0px;word-spacing:0px;fill:#000000;fill-opacity:1;stroke:none;stroke-width:0.26458332"
       id="text936"
       transform="translate(0,-0.37797619)">
      <path
         d="m 14.952895,123.32429 h 0.281119 l 0.432704,1.73908 0.431326,-1.73908 h 0.312815 l 0.432704,1.73908 0.431326,-1.73908 h 0.282498 l -0.516764,2.05741 h -0.350022 l -0.434082,-1.78594 -0.438216,1.78594 h -0.350022 z"
         style="font-size:2.82222223px;line-height:0.1;fill:#ffffff;stroke-width:0.26458332"
         id="path1046"
         inkscape:connector-curvature="0" />
      <path
         d="m 17.926701,123.32429 h 1.300868 v 0.23426 h -1.022504 v 0.6091 h 0.979785 v 0.23426 h -0.979785 v 0.74552 h 1.047309 v 0.23427 h -1.325673 z"
         style="font-size:2.82222223px;line-height:0.1;fill:#ffffff;stroke-width:0.26458332"
         id="path1048"
         inkscape:connector-curvature="0" />
      <path
         d="m 19.709882,123.32429 h 0.278364 v 2.05741 h -0.278364 z"
         style="font-size:2.82222223px;line-height:0.1;fill:#ffffff;stroke-width:0.26458332"
         id="path1050"
         inkscape:connector-curvature="0" />
      <path
         d="m 21.945061,125.08818 v -0.5526 h -0.454753 v -0.22875 h 0.73036 v 0.88332 q -0.16123,0.11438 -0.355534,0.17363 -0.194303,0.0579 -0.414789,0.0579 -0.482313,0 -0.755165,-0.28112 -0.271474,-0.2825 -0.271474,-0.78548 0,-0.50436 0.271474,-0.78548 0.272852,-0.2825 0.755165,-0.2825 0.201194,0 0.381717,0.0496 0.181901,0.0496 0.334863,0.14607 v 0.29628 q -0.15434,-0.13091 -0.327973,-0.19706 -0.173633,-0.0662 -0.36518,-0.0662 -0.377583,0 -0.567752,0.21084 -0.188791,0.21084 -0.188791,0.62839 0,0.41617 0.188791,0.62701 0.190169,0.21084 0.567752,0.21084 0.14745,0 0.263205,-0.0248 0.115755,-0.0262 0.208084,-0.0799 z"
         style="font-size:2.82222223px;line-height:0.1;fill:#ffffff;stroke-width:0.26458332"
         id="path1052"
         inkscape:connector-curvature="0" />
      <path
         d="m 22.729164,123.32429 h 0.278364 v 0.84336 h 1.01148 v -0.84336 h 0.278364 v 2.05741 h -0.278364 v -0.97979 h -1.01148 v 0.97979 h -0.278364 z"
         style="font-size:2.82222223px;line-height:0.1;fill:#ffffff;stroke-width:0.26458332"
         id="path1054"
         inkscape:connector-curvature="0" />
      <path
         d="m 24.566089,123.32429 h 1.740462 v 0.23426 h -0.73036 v 1.82315 h -0.279742 v -1.82315 h -0.73036 z"
         style="font-size:2.82222223px;line-height:0.1;fill:#ffffff;stroke-width:0.26458332"
         id="path1056"
         inkscape:connector-curvature="0" />
      <path
         d="m 37.340504,123.32429 h 0.278364 v 1.82314 h 1.001834 v 0.23427 h -1.280198 z"
         style="font-size:2.82222223px;line-height:0.1;fill:#ffffff;stroke-width:0.26458332"
         id="path1058"
         inkscape:connector-curvature="0" />
      <path
         d="m 38.912844,123.32429 h 1.300868 v 0.23426 h -1.022504 v 0.6091 h 0.979785 v 0.23426 h -0.979785 v 0.74552 h 1.047309 v 0.23427 h -1.325673 z"
         style="font-size:2.82222223px;line-height:0.1;fill:#ffffff;stroke-width:0.26458332"
         id="path1060"
         inkscape:connector-curvature="0" />
      <path
         d="m 41.383667,123.59852 -0.377582,1.02388 h 0.756543 z m -0.157096,-0.27423 h 0.315571 l 0.784104,2.05741 h -0.289388 l -0.187414,-0.52779 h -0.927419 l -0.187414,0.52779 h -0.293522 z"
         style="font-size:2.82222223px;line-height:0.1;fill:#ffffff;stroke-width:0.26458332"
         id="path1062"
         inkscape:connector-curvature="0" />
      <path
         d="m 42.626658,123.32429 h 0.278364 v 0.86954 l 0.923285,-0.86954 h 0.35829 l -1.021126,0.95911 1.094162,1.0983 h -0.366558 l -0.988053,-0.99081 v 0.99081 h -0.278364 z"
         style="font-size:2.82222223px;line-height:0.1;fill:#ffffff;stroke-width:0.26458332"
         id="path1064"
         inkscape:connector-curvature="0" />
      <path
         d="m 53.52694,124.41707 q 0.08957,0.0303 0.173633,0.12954 0.08544,0.0992 0.170877,0.27285 l 0.282498,0.56224 h -0.299035 l -0.263205,-0.52779 q -0.101975,-0.20671 -0.198438,-0.27423 -0.09508,-0.0675 -0.260449,-0.0675 h -0.303168 v 0.86954 h -0.278364 v -2.05741 h 0.628386 q 0.352777,0 0.52641,0.14745 0.173633,0.14745 0.173633,0.4451 0,0.19431 -0.09095,0.32246 -0.08957,0.12816 -0.261827,0.17777 z m -0.697287,-0.86403 v 0.73036 h 0.350022 q 0.201193,0 0.303168,-0.0923 0.103353,-0.0937 0.103353,-0.27423 0,-0.18052 -0.103353,-0.27147 -0.101975,-0.0923 -0.303168,-0.0923 z"
         style="font-size:2.82222223px;line-height:0.1;fill:#ffffff;stroke-width:0.26458332"
         id="path1066"
         inkscape:connector-curvature="0" />
      <path
         d="m 54.512238,123.32429 h 1.300868 v 0.23426 h -1.022504 v 0.6091 h 0.979785 v 0.23426 h -0.979785 v 0.74552 h 1.047309 v 0.23427 h -1.325673 z"
         style="font-size:2.82222223px;line-height:0.1;fill:#ffffff;stroke-width:0.26458332"
         id="path1068"
         inkscape:connector-curvature="0" />
      <path
         d="m 56.295418,123.32429 h 1.182357 v 0.23426 h -0.903993 v 0.60634 h 0.815799 v 0.23427 h -0.815799 v 0.98254 h -0.278364 z"
         style="font-size:2.82222223px;line-height:0.1;fill:#ffffff;stroke-width:0.26458332"
         id="path1070"
         inkscape:connector-curvature="0" />
      <path
         d="m 58.894399,124.41707 q 0.08957,0.0303 0.173632,0.12954 0.08544,0.0992 0.170877,0.27285 l 0.282498,0.56224 h -0.299034 l -0.263206,-0.52779 q -0.101975,-0.20671 -0.198437,-0.27423 -0.09508,-0.0675 -0.260449,-0.0675 h -0.303169 v 0.86954 h -0.278364 v -2.05741 h 0.628386 q 0.352778,0 0.52641,0.14745 0.173633,0.14745 0.173633,0.4451 0,0.19431 -0.09095,0.32246 -0.08957,0.12816 -0.261827,0.17777 z m -0.697288,-0.86403 v 0.73036 h 0.350022 q 0.201193,0 0.303168,-0.0923 0.103353,-0.0937 0.103353,-0.27423 0,-0.18052 -0.103353,-0.27147 -0.101975,-0.0923 -0.303168,-0.0923 z"
         style="font-size:2.82222223px;line-height:0.1;fill:#ffffff;stroke-width:0.26458332"
         id="path1072"
         inkscape:connector-curvature="0" />
      <path
         d="m 60.452961,123.59852 -0.377582,1.02388 h 0.756543 z m -0.157096,-0.27423 h 0.315571 l 0.784104,2.05741 h -0.289388 l -0.187414,-0.52779 h -0.927419 l -0.187414,0.52779 h -0.293522 z"
         style="font-size:2.82222223px;line-height:0.1;fill:#ffffff;stroke-width:0.26458332"
         id="path1074"
         inkscape:connector-curvature="0" />
      <path
         d="m 63.186987,123.48276 v 0.29352 q -0.14056,-0.13091 -0.300413,-0.19568 -0.158474,-0.0648 -0.337619,-0.0648 -0.352778,0 -0.540191,0.21636 -0.187413,0.21497 -0.187413,0.62287 0,0.40652 0.187413,0.62287 0.187413,0.21498 0.540191,0.21498 0.179145,0 0.337619,-0.0648 0.159853,-0.0648 0.300413,-0.19568 v 0.29076 q -0.146072,0.0992 -0.310059,0.14883 -0.162608,0.0496 -0.34451,0.0496 -0.467154,0 -0.735872,-0.28525 -0.268717,-0.28663 -0.268717,-0.78135 0,-0.49609 0.268717,-0.78135 0.268718,-0.28663 0.735872,-0.28663 0.184658,0 0.347266,0.0496 0.163987,0.0482 0.307303,0.14607 z"
         style="font-size:2.82222223px;line-height:0.1;fill:#ffffff;stroke-width:0.26458332"
         id="path1076"
         inkscape:connector-curvature="0" />
      <path
         d="m 63.331682,123.32429 h 1.740463 v 0.23426 h -0.730361 v 1.82315 h -0.279741 v -1.82315 h -0.730361 z"
         style="font-size:2.82222223px;line-height:0.1;fill:#ffffff;stroke-width:0.26458332"
         id="path1078"
         inkscape:connector-curvature="0" />
      <path
         d="m 66.175954,123.51308 q -0.303168,0 -0.482313,0.226 -0.177767,0.226 -0.177767,0.61598 0,0.38861 0.177767,0.61461 0.179145,0.22599 0.482313,0.22599 0.303168,0 0.479557,-0.22599 0.177767,-0.226 0.177767,-0.61461 0,-0.38998 -0.177767,-0.61598 -0.176389,-0.226 -0.479557,-0.226 z m 0,-0.226 q 0.432704,0 0.691775,0.29077 0.259071,0.28938 0.259071,0.77721 0,0.48645 -0.259071,0.77721 -0.259071,0.28939 -0.691775,0.28939 -0.434082,0 -0.694531,-0.28939 -0.259072,-0.28938 -0.259072,-0.77721 0,-0.48783 0.259072,-0.77721 0.260449,-0.29077 0.694531,-0.29077 z"
         style="font-size:2.82222223px;line-height:0.1;fill:#ffffff;stroke-width:0.26458332"
         id="path1080"
         inkscape:connector-curvature="0" />
      <path
         d="m 68.537911,124.41707 q 0.08957,0.0303 0.173633,0.12954 0.08544,0.0992 0.170877,0.27285 l 0.282498,0.56224 h -0.299035 l -0.263205,-0.52779 q -0.101975,-0.20671 -0.198437,-0.27423 -0.09508,-0.0675 -0.26045,-0.0675 h -0.303168 v 0.86954 H 67.56226 v -2.05741 h 0.628386 q 0.352777,0 0.52641,0.14745 0.173633,0.14745 0.173633,0.4451 0,0.19431 -0.09095,0.32246 -0.08957,0.12816 -0.261827,0.17777 z m -0.697287,-0.86403 v 0.73036 h 0.350022 q 0.201193,0 0.303168,-0.0923 0.103353,-0.0937 0.103353,-0.27423 0,-0.18052 -0.103353,-0.27147 -0.101975,-0.0923 -0.303168,-0.0923 z"
         style="font-size:2.82222223px;line-height:0.1;fill:#ffffff;stroke-width:0.26458332"
         id="path1082"
         inkscape:connector-curvature="0" />
      <path
         d="m 69.060188,123.32429 h 0.299035 l 0.570507,0.84611 0.566374,-0.84611 h 0.299034 l -0.727604,1.07762 v 0.97979 h -0.279741 v -0.97979 z"
         style="font-size:2.82222223px;line-height:0.1;fill:#ffffff;stroke-width:0.26458332"
         id="path1084"
         inkscape:connector-curvature="0" />
      <path
         d="m 77.624693,123.55304 v 1.5999 h 0.336241 q 0.425814,0 0.622874,-0.19292 0.198437,-0.19293 0.198437,-0.60909 0,-0.41342 -0.198437,-0.60496 -0.19706,-0.19293 -0.622874,-0.19293 z m -0.278364,-0.22875 h 0.571886 q 0.598069,0 0.87781,0.24942 0.279742,0.24805 0.279742,0.77722 0,0.53192 -0.28112,0.78134 -0.281119,0.24943 -0.876432,0.24943 h -0.571886 z"
         style="font-size:2.82222223px;line-height:0.1;fill:#ffffff;stroke-width:0.26458332"
         id="path1086"
         inkscape:connector-curvature="0" />
      <path
         d="m 79.519497,123.32429 h 1.300868 v 0.23426 h -1.022504 v 0.6091 h 0.979785 v 0.23426 h -0.979785 v 0.74552 h 1.047309 v 0.23427 h -1.325673 z"
         style="font-size:2.82222223px;line-height:0.1;fill:#ffffff;stroke-width:0.26458332"
         id="path1088"
         inkscape:connector-curvature="0" />
      <path
         d="m 81.302678,123.32429 h 0.278363 v 1.82314 h 1.001834 v 0.23427 h -1.280197 z"
         style="font-size:2.82222223px;line-height:0.1;fill:#ffffff;stroke-width:0.26458332"
         id="path1090"
         inkscape:connector-curvature="0" />
      <path
         d="m 83.627427,123.59852 -0.377583,1.02388 h 0.756543 z m -0.157097,-0.27423 h 0.315571 l 0.784104,2.05741 h -0.289388 l -0.187414,-0.52779 h -0.927419 l -0.187413,0.52779 h -0.293523 z"
         style="font-size:2.82222223px;line-height:0.1;fill:#ffffff;stroke-width:0.26458332"
         id="path1092"
         inkscape:connector-curvature="0" />
      <path
         d="m 84.368813,123.32429 h 0.299034 l 0.570508,0.84611 0.566373,-0.84611 h 0.299035 l -0.727604,1.07762 v 0.97979 h -0.279742 v -0.97979 z"
         style="font-size:2.82222223px;line-height:0.1;fill:#ffffff;stroke-width:0.26458332"
         id="path1094"
         inkscape:connector-curvature="0" />
      <path
         d="m 55.784166,125.71022 v 0.77308 h 0.350022 q 0.194303,0 0.300412,-0.10059 0.106109,-0.1006 0.106109,-0.28664 0,-0.18465 -0.106109,-0.28525 -0.106109,-0.1006 -0.300412,-0.1006 z m -0.278363,-0.22875 h 0.628385 q 0.345888,0 0.522277,0.15709 0.177766,0.15572 0.177766,0.45751 0,0.30455 -0.177766,0.46027 -0.176389,0.15572 -0.522277,0.15572 h -0.350022 v 0.82682 h -0.278363 z"
         style="font-size:2.82222223px;line-height:0.1;fill:#ffffff;stroke-width:0.26458332"
         id="path1096"
         inkscape:connector-curvature="0" />
      <path
         d="m 57.20768,125.48147 h 1.300868 v 0.23426 h -1.022504 v 0.6091 h 0.979785 v 0.23426 h -0.979785 v 0.74552 h 1.047309 v 0.23427 H 57.20768 Z"
         style="font-size:2.82222223px;line-height:0.1;fill:#ffffff;stroke-width:0.26458332"
         id="path1098"
         inkscape:connector-curvature="0" />
      <path
         d="m 59.966515,126.57425 q 0.08957,0.0303 0.173633,0.12954 0.08544,0.0992 0.170877,0.27285 l 0.282498,0.56224 h -0.299035 l -0.263205,-0.52779 q -0.101975,-0.2067 -0.198437,-0.27423 -0.09509,-0.0675 -0.26045,-0.0675 h -0.303168 v 0.86954 h -0.278364 v -2.05741 h 0.628386 q 0.352778,0 0.52641,0.14745 0.173633,0.14745 0.173633,0.4451 0,0.19431 -0.09095,0.32247 -0.08957,0.12815 -0.261828,0.17776 z m -0.697287,-0.86403 v 0.73036 h 0.350022 q 0.201193,0 0.303168,-0.0923 0.103353,-0.0937 0.103353,-0.27423 0,-0.18052 -0.103353,-0.27147 -0.101975,-0.0923 -0.303168,-0.0923 z"
         style="font-size:2.82222223px;line-height:0.1;fill:#ffffff;stroke-width:0.26458332"
         id="path1100"
         inkscape:connector-curvature="0" />
      <path
         d="m 60.951809,125.48147 h 0.278364 v 2.05741 h -0.278364 z"
         style="font-size:2.82222223px;line-height:0.1;fill:#ffffff;stroke-width:0.26458332"
         id="path1102"
         inkscape:connector-curvature="0" />
      <path
         d="m 62.619237,125.67026 q -0.303168,0 -0.482313,0.226 -0.177767,0.226 -0.177767,0.61598 0,0.38861 0.177767,0.61461 0.179145,0.22599 0.482313,0.22599 0.303168,0 0.479557,-0.22599 0.177767,-0.226 0.177767,-0.61461 0,-0.38998 -0.177767,-0.61598 -0.176389,-0.226 -0.479557,-0.226 z m 0,-0.226 q 0.432704,0 0.691775,0.29077 0.259071,0.28939 0.259071,0.77721 0,0.48645 -0.259071,0.77721 -0.259071,0.28939 -0.691775,0.28939 -0.434082,0 -0.694531,-0.28939 -0.259071,-0.28938 -0.259071,-0.77721 0,-0.48782 0.259071,-0.77721 0.260449,-0.29077 0.694531,-0.29077 z"
         style="font-size:2.82222223px;line-height:0.1;fill:#ffffff;stroke-width:0.26458332"
         id="path1104"
         inkscape:connector-curvature="0" />
      <path
         d="m 64.283907,125.71022 v 1.59991 h 0.336241 q 0.425814,0 0.622874,-0.19293 0.198437,-0.19293 0.198437,-0.60909 0,-0.41341 -0.198437,-0.60496 -0.19706,-0.19293 -0.622874,-0.19293 z m -0.278364,-0.22875 h 0.571886 q 0.598069,0 0.87781,0.24942 0.279742,0.24805 0.279742,0.77722 0,0.53192 -0.28112,0.78134 -0.281119,0.24943 -0.876432,0.24943 h -0.571886 z"
         style="font-size:2.82222223px;line-height:0.1;fill:#ffffff;stroke-width:0.26458332"
         id="path1106"
         inkscape:connector-curvature="0" />
    </g>
    <g
       aria-label="AVG         VAR"
       style="font-style:normal;font-weight:normal;font-size:10.58333302px;line-height:0;font-family:sans-serif;letter-spacing:0px;word-spacing:0px;fill:#000000;fill-opacity:1;stroke:none;stroke-width:0.26458332;enable-background:new"
       id="text936-3">
      <path
         d="m 48.63884,106.18398 -0.377582,1.02388 h 0.756543 z m -0.157096,-0.27423 h 0.315571 l 0.784103,2.05741 H 49.29203 l -0.187413,-0.52779 h -0.92742 l -0.187413,0.52779 h -0.293522 z"
         style="font-size:2.82222223px;line-height:0.1;fill:#ffffff;stroke-width:0.26458332"
         id="path1109" />
      <path
         d="m 50.231852,107.96716 -0.785481,-2.05741 h 0.290766 l 0.651812,1.7322 0.65319,-1.7322 h 0.289388 l -0.784104,2.05741 z"
         style="font-size:2.82222223px;line-height:0.1;fill:#ffffff;stroke-width:0.26458332"
         id="path1111" />
      <path
         d="m 53.034782,107.67364 v -0.55259 h -0.454753 v -0.22876 h 0.73036 v 0.88333 q -0.16123,0.11437 -0.355533,0.17363 -0.194304,0.0579 -0.41479,0.0579 -0.482313,0 -0.755165,-0.28112 -0.271473,-0.2825 -0.271473,-0.78549 0,-0.50436 0.271473,-0.78548 0.272852,-0.28249 0.755165,-0.28249 0.201194,0 0.381717,0.0496 0.181901,0.0496 0.334863,0.14608 v 0.29627 q -0.15434,-0.13091 -0.327973,-0.19705 -0.173633,-0.0662 -0.36518,-0.0662 -0.377583,0 -0.567752,0.21084 -0.188791,0.21084 -0.188791,0.62838 0,0.41617 0.188791,0.62701 0.190169,0.21084 0.567752,0.21084 0.14745,0 0.263205,-0.0248 0.115755,-0.0262 0.208084,-0.0799 z"
         style="font-size:2.82222223px;line-height:0.1;fill:#ffffff;stroke-width:0.26458332"
         id="path1113" />
      <path
         d="m 48.481744,118.75307 -0.785482,-2.05741 h 0.290766 l 0.651812,1.73219 0.65319,-1.73219 h 0.289388 l -0.784103,2.05741 z"
         style="font-size:2.82222223px;line-height:0.1;fill:#ffffff;stroke-width:0.26458332"
         id="path1115" />
      <path
         d="m 50.388949,116.96989 -0.377583,1.02388 h 0.756543 z m -0.157097,-0.27423 h 0.315571 l 0.784104,2.05741 h -0.289388 l -0.187413,-0.52779 h -0.92742 l -0.187413,0.52779 h -0.293522 z"
         style="font-size:2.82222223px;line-height:0.1;fill:#ffffff;stroke-width:0.26458332"
         id="path1117" />
      <path
         d="m 52.60759,117.78844 q 0.08957,0.0303 0.173633,0.12954 0.08544,0.0992 0.170877,0.27285 l 0.282497,0.56224 h -0.299034 l -0.263205,-0.52779 q -0.101975,-0.20671 -0.198438,-0.27423 -0.09508,-0.0675 -0.260449,-0.0675 h -0.303168 v 0.86954 h -0.278364 v -2.05741 h 0.628385 q 0.352778,0 0.526411,0.14745 0.173633,0.14745 0.173633,0.4451 0,0.19431 -0.09095,0.32246 -0.08957,0.12816 -0.261827,0.17777 z m -0.697287,-0.86403 v 0.73036 h 0.350021 q 0.201194,0 0.303169,-0.0923 0.103353,-0.0937 0.103353,-0.27423 0,-0.18052 -0.103353,-0.27147 -0.101975,-0.0923 -0.303169,-0.0923 z"
         style="font-size:2.82222223px;line-height:0.1;fill:#ffffff;stroke-width:0.26458332"
         id="path1119" />
    </g>
    <g
       aria-label="NEURONS           DISTRIBUTION"
       style="font-style:normal;font-weight:normal;font-size:10.58333302px;line-height:0;font-family:sans-serif;letter-spacing:0px;word-spacing:0px;fill:#000000;fill-opacity:1;stroke:none;stroke-width:0.26458332;enable-background:new"
       id="text936-5"
       transform="translate(0,0.9921875)">
      <path
         d="m 30.611542,37.566921 h 0.374827 l 0.912261,1.72117 v -1.72117 h 0.270095 v 2.057411 h -0.374826 l -0.912261,-1.721169 v 1.721169 h -0.270096 z"
         style="font-size:2.82222223px;line-height:0.1;fill:#ffffff;stroke-width:0.26458332"
         id="path1133"
         inkscape:connector-curvature="0" />
      <path
         d="m 32.722697,37.566921 h 1.300868 v 0.234267 h -1.022504 v 0.609093 h 0.979785 v 0.234266 h -0.979785 v 0.745519 h 1.047309 v 0.234266 h -1.325673 z"
         style="font-size:2.82222223px;line-height:0.1;fill:#ffffff;stroke-width:0.26458332"
         id="path1135"
         inkscape:connector-curvature="0" />
      <path
         d="m 34.474183,37.566921 h 0.279742 v 1.249881 q 0,0.330729 0.119889,0.476801 0.11989,0.144694 0.388607,0.144694 0.26734,0 0.387229,-0.144694 0.119889,-0.146072 0.119889,-0.476801 v -1.249881 h 0.279742 v 1.284332 q 0,0.402387 -0.199816,0.607715 -0.198437,0.205328 -0.587044,0.205328 -0.389985,0 -0.5898,-0.205328 -0.198438,-0.205328 -0.198438,-0.607715 z"
         style="font-size:2.82222223px;line-height:0.1;fill:#ffffff;stroke-width:0.26458332"
         id="path1137"
         inkscape:connector-curvature="0" />
      <path
         d="m 37.547209,38.659706 q 0.08957,0.03032 0.173632,0.129535 0.08544,0.09922 0.170877,0.272852 l 0.282498,0.562239 h -0.299034 l -0.263206,-0.527788 q -0.101974,-0.206706 -0.198437,-0.27423 -0.09508,-0.06752 -0.260449,-0.06752 h -0.303169 v 0.869542 h -0.278363 v -2.057411 h 0.628385 q 0.352778,0 0.526411,0.14745 0.173632,0.147451 0.173632,0.445107 0,0.194303 -0.09095,0.322461 -0.08957,0.128157 -0.261827,0.177767 z m -0.697288,-0.86403 v 0.73036 h 0.350022 q 0.201194,0 0.303168,-0.09233 0.103353,-0.09371 0.103353,-0.274229 0,-0.180523 -0.103353,-0.271474 -0.101974,-0.09233 -0.303168,-0.09233 z"
         style="font-size:2.82222223px;line-height:0.1;fill:#ffffff;stroke-width:0.26458332"
         id="path1139"
         inkscape:connector-curvature="0" />
      <path
         d="m 39.367597,37.755713 q -0.303168,0 -0.482313,0.225998 -0.177767,0.225998 -0.177767,0.615983 0,0.388607 0.177767,0.614605 0.179145,0.225998 0.482313,0.225998 0.303169,0 0.479557,-0.225998 0.177767,-0.225998 0.177767,-0.614605 0,-0.389985 -0.177767,-0.615983 -0.176388,-0.225998 -0.479557,-0.225998 z m 0,-0.225999 q 0.432704,0 0.691775,0.290766 0.259072,0.289388 0.259072,0.777214 0,0.486447 -0.259072,0.777214 -0.259071,0.289388 -0.691775,0.289388 -0.434082,0 -0.694531,-0.289388 -0.259071,-0.289389 -0.259071,-0.777214 0,-0.487826 0.259071,-0.777214 0.260449,-0.290766 0.694531,-0.290766 z"
         style="font-size:2.82222223px;line-height:0.1;fill:#ffffff;stroke-width:0.26458332"
         id="path1141"
         inkscape:connector-curvature="0" />
      <path
         d="m 40.753904,37.566921 h 0.374826 l 0.912262,1.72117 v -1.72117 h 0.270095 v 2.057411 h -0.374826 l -0.912262,-1.721169 v 1.721169 h -0.270095 z"
         style="font-size:2.82222223px;line-height:0.1;fill:#ffffff;stroke-width:0.26458332"
         id="path1143"
         inkscape:connector-curvature="0" />
      <path
         d="m 44.098403,37.634445 v 0.271474 q -0.158475,-0.07579 -0.299035,-0.112999 -0.14056,-0.03721 -0.271473,-0.03721 -0.227376,0 -0.3514,0.08819 -0.122645,0.08819 -0.122645,0.250803 0,0.136426 0.0813,0.206706 0.08268,0.0689 0.311437,0.111621 l 0.16812,0.03445 q 0.311437,0.05926 0.458887,0.209462 0.148828,0.148828 0.148828,0.399631 0,0.299034 -0.201193,0.453374 -0.199816,0.154341 -0.587045,0.154341 -0.146072,0 -0.311436,-0.03307 -0.163987,-0.03307 -0.340376,-0.09784 V 39.24675 q 0.169499,0.09509 0.332107,0.143316 0.162609,0.04823 0.319705,0.04823 0.238401,0 0.367936,-0.09371 0.129536,-0.09371 0.129536,-0.26734 0,-0.151584 -0.09371,-0.237022 -0.09233,-0.08544 -0.304546,-0.128158 l -0.169499,-0.03307 q -0.311436,-0.06201 -0.450618,-0.194303 -0.139182,-0.132292 -0.139182,-0.367936 0,-0.272852 0.191547,-0.429948 0.192926,-0.157097 0.530545,-0.157097 0.144694,0 0.2949,0.02618 0.150206,0.02618 0.307303,0.07855 z"
         style="font-size:2.82222223px;line-height:0.1;fill:#ffffff;stroke-width:0.26458332"
         id="path1145"
         inkscape:connector-curvature="0" />
      <path
         d="m 54.803003,37.795676 v 1.599902 h 0.336242 q 0.425813,0 0.622873,-0.192925 0.198437,-0.192926 0.198437,-0.609093 0,-0.413412 -0.198437,-0.604959 -0.19706,-0.192925 -0.622873,-0.192925 z M 54.52464,37.566921 h 0.571885 q 0.598069,0 0.877811,0.249425 0.279742,0.248047 0.279742,0.777214 0,0.531923 -0.28112,0.781348 -0.28112,0.249424 -0.876433,0.249424 H 54.52464 Z"
         style="font-size:2.82222223px;line-height:0.1;fill:#ffffff;stroke-width:0.26458332"
         id="path1147"
         inkscape:connector-curvature="0" />
      <path
         d="m 56.697806,37.566921 h 0.278364 v 2.057411 h -0.278364 z"
         style="font-size:2.82222223px;line-height:0.1;fill:#ffffff;stroke-width:0.26458332"
         id="path1149"
         inkscape:connector-curvature="0" />
      <path
         d="m 58.763485,37.634445 v 0.271474 q -0.158475,-0.07579 -0.299035,-0.112999 -0.14056,-0.03721 -0.271473,-0.03721 -0.227376,0 -0.3514,0.08819 -0.122645,0.08819 -0.122645,0.250803 0,0.136426 0.0813,0.206706 0.08268,0.0689 0.311437,0.111621 l 0.16812,0.03445 q 0.311437,0.05926 0.458887,0.209462 0.148828,0.148828 0.148828,0.399631 0,0.299034 -0.201194,0.453374 -0.199815,0.154341 -0.587044,0.154341 -0.146072,0 -0.311436,-0.03307 -0.163987,-0.03307 -0.340376,-0.09784 V 39.24675 q 0.169499,0.09509 0.332107,0.143316 0.162609,0.04823 0.319705,0.04823 0.238401,0 0.367936,-0.09371 0.129536,-0.09371 0.129536,-0.26734 0,-0.151584 -0.09371,-0.237022 -0.09233,-0.08544 -0.304546,-0.128158 l -0.169499,-0.03307 q -0.311436,-0.06201 -0.450618,-0.194303 -0.139182,-0.132292 -0.139182,-0.367936 0,-0.272852 0.191547,-0.429948 0.192926,-0.157097 0.530545,-0.157097 0.144694,0 0.2949,0.02618 0.150206,0.02618 0.307303,0.07855 z"
         style="font-size:2.82222223px;line-height:0.1;fill:#ffffff;stroke-width:0.26458332"
         id="path1151"
         inkscape:connector-curvature="0" />
      <path
         d="m 59.036337,37.566921 h 1.740462 v 0.234267 h -0.73036 v 1.823144 h -0.279742 v -1.823144 h -0.73036 z"
         style="font-size:2.82222223px;line-height:0.1;fill:#ffffff;stroke-width:0.26458332"
         id="path1153"
         inkscape:connector-curvature="0" />
      <path
         d="m 62.021167,38.659706 q 0.08957,0.03032 0.173632,0.129535 0.08544,0.09922 0.170877,0.272852 l 0.282498,0.562239 H 62.34914 l -0.263206,-0.527788 q -0.101974,-0.206706 -0.198437,-0.27423 -0.09509,-0.06752 -0.260449,-0.06752 h -0.303169 v 0.869542 h -0.278363 v -2.057411 h 0.628385 q 0.352778,0 0.526411,0.14745 0.173632,0.147451 0.173632,0.445107 0,0.194303 -0.09095,0.322461 -0.08957,0.128157 -0.261827,0.177767 z m -0.697288,-0.86403 v 0.73036 h 0.350022 q 0.201194,0 0.303168,-0.09233 0.103353,-0.09371 0.103353,-0.274229 0,-0.180523 -0.103353,-0.271474 -0.101974,-0.09233 -0.303168,-0.09233 z"
         style="font-size:2.82222223px;line-height:0.1;fill:#ffffff;stroke-width:0.26458332"
         id="path1155"
         inkscape:connector-curvature="0" />
      <path
         d="m 63.006466,37.566921 h 0.278364 v 2.057411 h -0.278364 z"
         style="font-size:2.82222223px;line-height:0.1;fill:#ffffff;stroke-width:0.26458332"
         id="path1157"
         inkscape:connector-curvature="0" />
      <path
         d="m 64.117163,38.641791 v 0.753787 h 0.446484 q 0.22462,0 0.332107,-0.09233 0.108865,-0.09371 0.108865,-0.285254 0,-0.192926 -0.108865,-0.283876 -0.107487,-0.09233 -0.332107,-0.09233 z m 0,-0.846115 v 0.620117 h 0.412033 q 0.20395,0 0.303169,-0.07579 0.100596,-0.07717 0.100596,-0.234267 0,-0.155718 -0.100596,-0.232888 -0.09922,-0.07717 -0.303169,-0.07717 z m -0.278364,-0.228755 h 0.711068 q 0.318327,0 0.490581,0.132292 0.172255,0.132292 0.172255,0.376204 0,0.188792 -0.08819,0.300413 -0.08819,0.111621 -0.259072,0.139182 0.205328,0.0441 0.318327,0.184657 0.114377,0.139182 0.114377,0.348643 0,0.275608 -0.187413,0.425814 -0.187413,0.150206 -0.5333,0.150206 h -0.738629 z"
         style="font-size:2.82222223px;line-height:0.1;fill:#ffffff;stroke-width:0.26458332"
         id="path1159"
         inkscape:connector-curvature="0" />
      <path
         d="m 65.74325,37.566921 h 0.279742 v 1.249881 q 0,0.330729 0.119889,0.476801 0.119889,0.144694 0.388607,0.144694 0.267339,0 0.387229,-0.144694 0.119889,-0.146072 0.119889,-0.476801 v -1.249881 h 0.279742 v 1.284332 q 0,0.402387 -0.199816,0.607715 -0.198437,0.205328 -0.587044,0.205328 -0.389985,0 -0.589801,-0.205328 Q 65.74325,39.25364 65.74325,38.851253 Z"
         style="font-size:2.82222223px;line-height:0.1;fill:#ffffff;stroke-width:0.26458332"
         id="path1161"
         inkscape:connector-curvature="0" />
      <path
         d="m 67.555369,37.566921 h 1.740462 v 0.234267 h -0.73036 v 1.823144 h -0.279742 v -1.823144 h -0.73036 z"
         style="font-size:2.82222223px;line-height:0.1;fill:#ffffff;stroke-width:0.26458332"
         id="path1163"
         inkscape:connector-curvature="0" />
      <path
         d="m 69.564549,37.566921 h 0.278364 v 2.057411 h -0.278364 z"
         style="font-size:2.82222223px;line-height:0.1;fill:#ffffff;stroke-width:0.26458332"
         id="path1165"
         inkscape:connector-curvature="0" />
      <path
         d="m 71.231977,37.755713 q -0.303169,0 -0.482314,0.225998 -0.177767,0.225998 -0.177767,0.615983 0,0.388607 0.177767,0.614605 0.179145,0.225998 0.482314,0.225998 0.303168,0 0.479557,-0.225998 0.177767,-0.225998 0.177767,-0.614605 0,-0.389985 -0.177767,-0.615983 -0.176389,-0.225998 -0.479557,-0.225998 z m 0,-0.225999 q 0.432704,0 0.691775,0.290766 0.259071,0.289388 0.259071,0.777214 0,0.486447 -0.259071,0.777214 -0.259071,0.289388 -0.691775,0.289388 -0.434082,0 -0.694532,-0.289388 -0.259071,-0.289389 -0.259071,-0.777214 0,-0.487826 0.259071,-0.777214 0.26045,-0.290766 0.694532,-0.290766 z"
         style="font-size:2.82222223px;line-height:0.1;fill:#ffffff;stroke-width:0.26458332"
         id="path1167"
         inkscape:connector-curvature="0" />
      <path
         d="m 72.618283,37.566921 h 0.374826 l 0.912262,1.72117 v -1.72117 h 0.270095 v 2.057411 H 73.80064 l -0.912262,-1.721169 v 1.721169 h -0.270095 z"
         style="font-size:2.82222223px;line-height:0.1;fill:#ffffff;stroke-width:0.26458332"
         id="path1169"
         inkscape:connector-curvature="0" />
    </g>
    <g
       aria-label="APPLY"
       style="font-style:normal;font-weight:normal;font-size:10.58333302px;line-height:0;font-family:sans-serif;letter-spacing:0px;word-spacing:0px;display:inline;fill:#000000;fill-opacity:1;stroke:none;stroke-width:0.26458332;enable-background:new"
       id="text936-3-6"
       transform="translate(0,9.7801339)">
      <path
         d="m 47.330693,68.93479 -0.377583,1.023883 h 0.756543 z m -0.157097,-0.274229 h 0.315571 l 0.784104,2.057411 H 47.983883 L 47.79647,70.190183 h -0.92742 l -0.187413,0.527789 h -0.293522 z"
         style="font-size:2.82222223px;line-height:0.1;fill:#ffffff;stroke-width:0.26458332"
         id="path1122"
         inkscape:connector-curvature="0" />
      <path
         d="m 48.852047,68.889315 v 0.77308 h 0.350022 q 0.194303,0 0.300412,-0.100597 0.106109,-0.100597 0.106109,-0.286632 0,-0.184657 -0.106109,-0.285254 -0.106109,-0.100597 -0.300412,-0.100597 z m -0.278364,-0.228754 h 0.628386 q 0.345887,0 0.522276,0.157096 0.177767,0.155718 0.177767,0.457509 0,0.304546 -0.177767,0.460265 -0.176389,0.155718 -0.522276,0.155718 h -0.350022 v 0.826823 h -0.278364 z"
         style="font-size:2.82222223px;line-height:0.1;fill:#ffffff;stroke-width:0.26458332"
         id="path1124"
         inkscape:connector-curvature="0" />
      <path
         d="m 50.553924,68.889315 v 0.77308 h 0.350022 q 0.194303,0 0.300412,-0.100597 0.106109,-0.100597 0.106109,-0.286632 0,-0.184657 -0.106109,-0.285254 -0.106109,-0.100597 -0.300412,-0.100597 z M 50.27556,68.660561 h 0.628386 q 0.345887,0 0.522276,0.157096 0.177767,0.155718 0.177767,0.457509 0,0.304546 -0.177767,0.460265 -0.176389,0.155718 -0.522276,0.155718 h -0.350022 v 0.826823 H 50.27556 Z"
         style="font-size:2.82222223px;line-height:0.1;fill:#ffffff;stroke-width:0.26458332"
         id="path1126"
         inkscape:connector-curvature="0" />
      <path
         d="m 51.977438,68.660561 h 0.278363 v 1.823144 h 1.001834 v 0.234267 h -1.280197 z"
         style="font-size:2.82222223px;line-height:0.1;fill:#ffffff;stroke-width:0.26458332"
         id="path1128"
         inkscape:connector-curvature="0" />
      <path
         d="m 52.892455,68.660561 h 0.299034 l 0.570508,0.846115 0.566374,-0.846115 h 0.299034 l -0.727604,1.077626 v 0.979785 h -0.279742 v -0.979785 z"
         style="font-size:2.82222223px;line-height:0.1;fill:#ffffff;stroke-width:0.26458332"
         id="path1130"
         inkscape:connector-curvature="0" />
    </g>
  </g>
</svg>
